<?xml version="1.0" encoding="UTF-8"?>
<svg id="Layer_1" xmlns="http://www.w3.org/2000/svg" version="1.1" viewBox="0 0 24 24">
  <!-- Generator: Adobe Illustrator 29.4.0, SVG Export Plug-In . SVG Version: 2.1.0 Build 152)  -->
  <defs>
    <style>
      .st0 {
        fill: #0c0c0c;
        fill-rule: evenodd;
      }
    </style>
  </defs>
  <path class="st0" d="M21.1,3.7c0-.4-.4-.5-.8-.4l-3.4,1.3c-.2,0-.4.2-.4.4l-2.5,8H5.9c-.3-.9-1.7-6.1-1.7-6.1-.1-.4-.5-.6-.8-.4-.4,0-.6.4-.5.8l1.9,6.5c0,.3.4.5.7.5h8.2c-.1.6-.4,1.4-.5,1.8h-7.8c-.4,0-.7.3-.7.6s.3.6.7.6h8.3c.3,0,.5-.1.6-.4l.9-3.1h0c.1-.4,2.4-7.6,2.5-8.1.5-.2,3.1-1.2,3.1-1.2.3,0,.4-.3.4-.6s0-.1,0-.2h0ZM5.6,17.8c-.8,0-1.4.7-1.4,1.5s.6,1.4,1.4,1.4,1.5-.7,1.5-1.4-.7-1.5-1.5-1.5h0ZM13.4,17.8c-.8,0-1.4.7-1.4,1.5s.7,1.4,1.4,1.4,1.4-.7,1.4-1.4-.7-1.5-1.4-1.5h0Z"/>
</svg>