<svg width="38" height="38" viewBox="0 0 38 38" fill="none" xmlns="http://www.w3.org/2000/svg">
<path d="M13.6855 15.9453C13.6855 18.8654 16.0528 21.2326 18.9729 21.2326V21.2326C21.8929 21.2326 24.2602 18.8654 24.2602 15.9453" stroke="#BD844C" stroke-width="1.8" stroke-linecap="round" stroke-linejoin="round"/>
<path d="M13.6855 11.4118V10.6564C13.6855 7.73635 16.0528 5.36914 18.9729 5.36914V5.36914C21.8929 5.36914 24.2602 7.73635 24.2602 10.6564V11.4118" stroke="#BD844C" stroke-width="1.8" stroke-linecap="round" stroke-linejoin="round"/>
<path fill-rule="evenodd" clip-rule="evenodd" d="M10.6107 11.4121C9.01525 11.4121 7.69484 12.6527 7.59532 14.245L6.90192 25.3393C6.78487 27.2122 7.44722 29.0502 8.73208 30.4179C10.0169 31.7856 11.81 32.5613 13.6866 32.5613H24.2606C26.1372 32.5613 27.9303 31.7856 29.2152 30.4179C30.5 29.0502 31.1624 27.2122 31.0453 25.3393L30.352 14.245C30.2524 12.6526 28.932 11.4121 27.3366 11.4121H10.6107Z" stroke="#BD844C" stroke-width="1.8" stroke-linecap="round" stroke-linejoin="round"/>
</svg>
