<?xml version="1.0" encoding="UTF-8"?>
<svg id="Layer_1" xmlns="http://www.w3.org/2000/svg" version="1.1" viewBox="0 0 24 24">
  <!-- Generator: Adobe Illustrator 29.4.0, SVG Export Plug-In . SVG Version: 2.1.0 Build 152)  -->
  <defs>
    <style>
      .st0 {
        fill: #fff;
        fill-rule: evenodd;
      }

      .st1 {
        fill: none;
        stroke: #010f1c;
        stroke-linejoin: round;
        stroke-width: 1.5px;
      }
    </style>
  </defs>
  <path class="st1" d="M-11.1,20c-.3,0-.6-.1-.8-.3l-5.9-5.9s-.1-.1-.3-.3c-.1-.1-.3-.3-.6-.7-.3-.3-.5-.7-.7-1-.2-.4-.4-.8-.6-1.3-.2-.5-.2-1-.2-1.5,0-1.6.5-2.8,1.4-3.7.9-.9,2.1-1.4,3.7-1.4s.9,0,1.4.2c.4.2.9.4,1.3.6.4.2.7.5.9.7.1.1.3.2.4.4.1-.1.3-.2.4-.4.3-.2.6-.5.9-.7.4-.3.8-.5,1.3-.6.5-.2.9-.2,1.4-.2,1.5,0,2.8.5,3.7,1.4.9.9,1.4,2.1,1.4,3.7s-.8,3.2-2.3,4.7l-5.9,5.9c-.2.2-.5.3-.8.3Z"/>
  <path class="st1" d="M35.5,4.2c-.3-.3-.7-.3-.9,0l-6.9,6.8s0,0,0,0c0,0,0,0,0,0v8c0,.3,0,.5.3.7.2.2.4.3.7.3h4.5v-3.9c0-1.1.9-1.9,1.9-1.9h0c1.1,0,1.9.9,1.9,1.9v3.9h4.5c.3,0,.5,0,.7-.3.2-.2.3-.4.3-.7v-8s0,0,0,0l-6.9-6.8Z"/>
  <g>
    <circle class="st1" cx="55.6" cy="11.4" r="7.4"/>
    <line class="st1" x1="61" y1="16.4" x2="64.9" y2="20.3"/>
  </g>
  <path class="st0" d="M21.1,3.7c0-.4-.4-.5-.8-.4l-3.4,1.3c-.2,0-.4.2-.4.4l-2.5,8H5.9c-.3-.9-1.7-6.1-1.7-6.1-.1-.4-.5-.6-.8-.4-.4,0-.6.4-.5.8l1.9,6.5c0,.3.4.5.7.5h8.3c-.1.6-.4,1.4-.5,1.8h-7.8c-.4,0-.7.3-.7.6s.3.6.7.6h8.3c.3,0,.5-.1.6-.4l.9-3.1h0c.1-.4,2.4-7.6,2.5-8.1.5-.2,3.1-1.2,3.1-1.2.3,0,.4-.3.4-.6s0-.2,0-.2h0ZM5.6,17.9c-.8,0-1.4.7-1.4,1.5s.6,1.4,1.4,1.4,1.5-.7,1.5-1.4-.7-1.5-1.5-1.5h0ZM13.5,17.9c-.8,0-1.4.7-1.4,1.5s.7,1.4,1.4,1.4,1.4-.7,1.4-1.4-.7-1.5-1.4-1.5h0Z"/>
</svg>