<svg width="38" height="38" viewBox="0 0 38 38" fill="none" xmlns="http://www.w3.org/2000/svg">
<path d="M13.6855 15.9478C13.6855 18.8679 16.0528 21.2351 18.9729 21.2351V21.2351C21.8929 21.2351 24.2602 18.8679 24.2602 15.9478" stroke="#57437B" stroke-width="1.8" stroke-linecap="round" stroke-linejoin="round"/>
<path d="M13.6855 11.4152V10.6599C13.6855 7.73976 16.0528 5.37256 18.9729 5.37256V5.37256C21.8929 5.37256 24.2602 7.73976 24.2602 10.6599V11.4152" stroke="#57437B" stroke-width="1.8" stroke-linecap="round" stroke-linejoin="round"/>
<path fill-rule="evenodd" clip-rule="evenodd" d="M10.6092 11.416C9.01379 11.416 7.69337 12.6566 7.59385 14.2489L6.90046 25.3432C6.7834 27.2161 7.44575 29.0541 8.73061 30.4218C10.0155 31.7895 11.8085 32.5652 13.6851 32.5652H24.2592C26.1357 32.5652 27.9288 31.7895 29.2137 30.4218C30.4986 29.0541 31.1609 27.2161 31.0439 25.3432L30.3505 14.2489C30.251 12.6566 28.9305 11.416 27.3351 11.416H10.6092Z" stroke="#57437B" stroke-width="1.8" stroke-linecap="round" stroke-linejoin="round"/>
</svg>
