<svg width="32" height="19" viewBox="0 0 32 19" fill="none" xmlns="http://www.w3.org/2000/svg">
<path d="M8.66699 16.334H3.66699C3.11499 16.334 2.66699 15.886 2.66699 15.334C2.66699 14.782 3.11499 14.334 3.66699 14.334H8.66699C9.21899 14.334 9.66699 14.782 9.66699 15.334C9.66699 15.886 9.21899 16.334 8.66699 16.334ZM18.667 16.334H14.0003C13.4483 16.334 13.0003 15.886 13.0003 15.334C13.0003 14.782 13.4483 14.334 14.0003 14.334H17.859L20.431 2.33398H6.33366C5.78166 2.33398 5.33366 1.88598 5.33366 1.33398C5.33366 0.781984 5.78166 0.333984 6.33366 0.333984H21.667C21.9697 0.333984 22.255 0.471318 22.4443 0.704651C22.635 0.940651 22.7083 1.24732 22.6443 1.54332L19.6443 15.5433C19.5457 16.0047 19.139 16.334 18.667 16.334Z" fill="#57437B"/>
<path d="M30.0003 16.334H28.667C28.115 16.334 27.667 15.886 27.667 15.334C27.667 14.782 28.115 14.334 28.667 14.334H29.1923L29.999 10.5673C29.9456 8.22332 28.023 6.33398 25.667 6.33398H21.6176L19.903 14.334H23.3336C23.8856 14.334 24.3336 14.782 24.3336 15.334C24.3336 15.886 23.8856 16.334 23.3336 16.334H18.667C18.3643 16.334 18.079 16.1967 17.8896 15.9633C17.699 15.7273 17.6256 15.4207 17.6896 15.1247L19.8323 5.12465C19.931 4.66332 20.3376 4.33398 20.8096 4.33398H25.667C29.159 4.33398 32.0003 7.17532 32.0003 10.6673C32.0003 10.738 31.9936 10.8073 31.9776 10.8767L30.9776 15.5433C30.879 16.0047 30.4723 16.334 30.0003 16.334Z" fill="#57437B"/>
<path d="M26 19C24.1627 19 22.6667 17.5053 22.6667 15.6667C22.6667 13.828 24.1627 12.3333 26 12.3333C27.8373 12.3333 29.3333 13.828 29.3333 15.6667C29.3333 17.5053 27.8373 19 26 19ZM26 14.3333C25.2653 14.3333 24.6667 14.9307 24.6667 15.6667C24.6667 16.4027 25.2653 17 26 17C26.7347 17 27.3333 16.4027 27.3333 15.6667C27.3333 14.9307 26.7347 14.3333 26 14.3333ZM11.3333 19C9.496 19 8 17.5053 8 15.6667C8 13.828 9.496 12.3333 11.3333 12.3333C13.1707 12.3333 14.6667 13.828 14.6667 15.6667C14.6667 17.5053 13.1707 19 11.3333 19ZM11.3333 14.3333C10.5987 14.3333 10 14.9307 10 15.6667C10 16.4027 10.5987 17 11.3333 17C12.068 17 12.6667 16.4027 12.6667 15.6667C12.6667 14.9307 12.068 14.3333 11.3333 14.3333ZM8.33333 5H3.66667C3.11467 5 2.66667 4.552 2.66667 4C2.66667 3.448 3.11467 3 3.66667 3H8.33333C8.88533 3 9.33333 3.448 9.33333 4C9.33333 4.552 8.88533 5 8.33333 5ZM8.33333 9H2.33333C1.78133 9 1.33333 8.552 1.33333 8C1.33333 7.448 1.78133 7 2.33333 7H8.33333C8.88533 7 9.33333 7.448 9.33333 8C9.33333 8.552 8.88533 9 8.33333 9ZM8.33333 13H1C0.448 13 0 12.552 0 12C0 11.448 0.448 11 1 11H8.33333C8.88533 11 9.33333 11.448 9.33333 12C9.33333 12.552 8.88533 13 8.33333 13Z" fill="#57437B"/>
</svg>
