<svg width="24" height="19" viewBox="0 0 24 19" fill="none" xmlns="http://www.w3.org/2000/svg">
<path d="M0 3.55273C0 1.8957 1.34297 0.552734 3 0.552734H21C22.6547 0.552734 24 1.8957 24 3.55273V15.5527C24 17.2074 22.6547 18.5527 21 18.5527H3C1.34297 18.5527 0 17.2074 0 15.5527V3.55273ZM2.25 3.55273V4.58867L10.3359 11.2262C11.3016 12.023 12.6984 12.023 13.6641 11.2262L21.75 4.58867V3.51055C21.75 3.14023 21.4125 2.76055 21 2.76055H3C2.58562 2.76055 2.25 3.14023 2.25 3.51055V3.55273ZM2.25 7.49961V15.5527C2.25 15.9652 2.58562 16.3027 3 16.3027H21C21.4125 16.3027 21.75 15.9652 21.75 15.5527V7.49961L15.0938 12.9652C13.2937 14.4418 10.7063 14.4418 8.86406 12.9652L2.25 7.49961Z" fill="#010F1C"/>
</svg>
