<?xml version="1.0" encoding="utf-8"?>
<svg xmlns="http://www.w3.org/2000/svg" width="16" height="16" fill="currentColor" class="bi bi-arrow-down-up" viewBox="0 0 16 16">
  <path fill-rule="evenodd" d="M 11.5 15 C 11.776 15 12 14.776 12 14.5 L 12 2.707 L 15.146 5.854 C 15.419 6.127 15.884 6.002 15.984 5.63 C 16.03 5.457 15.98 5.272 15.854 5.146 L 11.854 1.146 C 11.659 0.95 11.341 0.95 11.146 1.146 L 7.146 5.146 C 6.873 5.419 6.998 5.884 7.37 5.984 C 7.543 6.03 7.728 5.98 7.854 5.854 L 11 2.707 L 11 14.5 C 11 14.776 11.224 15 11.5 15 M 4.5 1 C 4.776 1 5 1.224 5 1.5 L 5 13.293 L 8.146 10.146 C 8.419 9.873 8.884 9.998 8.984 10.37 C 9.03 10.543 8.98 10.728 8.854 10.854 L 4.854 14.854 C 4.659 15.05 4.341 15.05 4.146 14.854 L 0.146 10.854 C -0.127 10.581 -0.002 10.116 0.37 10.016 C 0.543 9.97 0.728 10.02 0.854 10.146 L 4 13.293 L 4 1.5 C 4 1.224 4.224 1 4.5 1" style="transform-box: fill-box; transform-origin: 50% 50%; fill: rgb(189, 132, 76);" transform="matrix(0, 1, -1, 0, 0, 0)"/>
</svg>