<svg width="50" height="45" viewBox="0 0 50 45" fill="none" xmlns="http://www.w3.org/2000/svg">
<path d="M25.0002 5.32422C24.5119 4.67318 23.9585 4.07096 23.34 3.51758C22.7215 2.96419 22.0379 2.47591 21.2892 2.05273C19.5314 1.04362 17.7085 0.473957 15.8205 0.34375C13.8999 0.246094 12.0688 0.498371 10.3273 1.10059C8.58577 1.7028 6.99886 2.63867 5.56657 3.9082C4.13428 5.17773 3.02751 6.67513 2.24626 8.40039C1.59521 9.73503 1.17204 11.1185 0.976725 12.5508C0.748861 13.9831 0.716309 15.4072 0.879069 16.8232C1.04183 18.2393 1.36735 19.6146 1.85563 20.9492C2.34391 22.3164 2.9624 23.6022 3.7111 24.8066C4.91553 26.7598 6.36409 28.5827 8.0568 30.2754C9.74951 31.9681 11.5236 33.5794 13.3791 35.1094C14.1603 35.7604 14.9497 36.3952 15.7472 37.0137C16.5448 37.6322 17.3341 38.2344 18.1154 38.8203C18.2456 38.9505 18.384 39.0726 18.5304 39.1865C18.6769 39.3005 18.8315 39.4225 18.9943 39.5527C19.9058 40.2689 20.8009 40.9769 21.6799 41.6768C22.5588 42.3766 23.4051 43.0846 24.2189 43.8008L25.0002 44.4844L25.7814 43.8008C26.5952 43.1172 27.4416 42.4255 28.3205 41.7256C29.1994 41.0257 30.1108 40.3177 31.0548 39.6016L31.592 39.1621C32.4383 38.5111 33.2847 37.8519 34.131 37.1846C34.9774 36.5173 35.8237 35.8418 36.6701 35.1582C38.5256 33.6283 40.2996 32.0088 41.9923 30.2998C43.6851 28.5908 45.1173 26.7598 46.2892 24.8066C47.0705 23.5697 47.7052 22.2839 48.1935 20.9492C48.6493 19.6146 48.9585 18.2393 49.1213 16.8232C49.284 15.4072 49.2677 13.9831 49.0724 12.5508C48.8446 11.151 48.4214 9.76758 47.8029 8.40039C46.9891 6.64258 45.866 5.12891 44.4338 3.85938C43.0015 2.62239 41.4146 1.7028 39.673 1.10059C37.9315 0.498371 36.1167 0.262371 34.2287 0.392578C32.3081 0.490234 30.4689 1.04362 28.7111 2.05273C27.9624 2.47591 27.2788 2.96419 26.6603 3.51758C26.0418 4.07096 25.4884 4.67318 25.0002 5.32422ZM4.34587 9.37695C5.02946 7.91211 5.95719 6.65886 7.12907 5.61719C8.3335 4.57552 9.65999 3.80241 11.1086 3.29785C12.5571 2.79329 14.0627 2.58984 15.6252 2.6875C17.1877 2.78516 18.6851 3.25716 20.1174 4.10352C20.9637 4.55925 21.6961 5.10449 22.3146 5.73926C22.9331 6.37402 23.5028 7.11458 24.0236 7.96094L25.0002 9.62109L25.9767 8.00977C26.5301 7.13086 27.1079 6.37402 27.7101 5.73926C28.3123 5.10449 29.0366 4.55925 29.883 4.10352C31.3153 3.28971 32.8127 2.83398 34.3752 2.73633C35.9702 2.60612 37.4839 2.79329 38.9162 3.29785C40.3485 3.80241 41.6668 4.57552 42.8713 5.61719C44.0431 6.65886 44.9709 7.91211 45.6545 9.37695C46.7287 11.6556 47.1112 14.0482 46.8019 16.5547C46.4927 19.0612 45.6707 21.3887 44.3361 23.5371L44.2873 23.5859C43.2131 25.3763 41.8784 27.0771 40.2834 28.6885C38.6883 30.2998 36.9793 31.8542 35.1564 33.3516C34.3426 34.0352 33.5207 34.7025 32.6906 35.3535C31.8605 36.0046 31.0223 36.6556 30.1759 37.3066L29.6388 37.7461C28.825 38.332 28.0356 38.9342 27.2707 39.5527C26.5057 40.1712 25.7489 40.7734 25.0002 41.3594C24.284 40.7409 23.5435 40.1305 22.7785 39.5283C22.0135 38.9261 21.2241 38.3158 20.4103 37.6973C20.2801 37.5671 20.1418 37.445 19.9953 37.3311C19.8488 37.2171 19.6942 37.1113 19.5314 37.0137C18.7502 36.3952 17.9689 35.7767 17.1877 35.1582C16.4064 34.5397 15.6414 33.9212 14.8927 33.3027C13.0698 31.8053 11.3608 30.251 9.76579 28.6396C8.17074 27.0283 6.80355 25.3275 5.66423 23.5371C4.36214 21.3887 3.54834 19.0612 3.22282 16.5547C2.8973 14.0482 3.27165 11.6556 4.34587 9.37695Z" fill="#339994"/>
</svg>
