<svg width="50" height="45" viewBox="0 0 50 45" fill="none" xmlns="http://www.w3.org/2000/svg">
<path d="M25.0002 5.32428C24.5119 4.67324 23.9585 4.07103 23.34 3.51764C22.7215 2.96425 22.0379 2.47597 21.2892 2.0528C19.5314 1.04368 17.7085 0.474018 15.8205 0.343811C13.8999 0.246155 12.0688 0.498432 10.3273 1.10065C8.58577 1.70286 6.99886 2.63873 5.56657 3.90826C4.13428 5.1778 3.02751 6.67519 2.24626 8.40045C1.59521 9.73509 1.17204 11.1185 0.976725 12.5508C0.748861 13.9831 0.716309 15.4073 0.879069 16.8233C1.04183 18.2393 1.36735 19.6146 1.85563 20.9493C2.34391 22.3165 2.9624 23.6023 3.7111 24.8067C4.91553 26.7598 6.36409 28.5827 8.0568 30.2755C9.74951 31.9682 11.5236 33.5795 13.3791 35.1094C14.1603 35.7605 14.9497 36.3952 15.7472 37.0137C16.5448 37.6322 17.3341 38.2344 18.1154 38.8204C18.2456 38.9506 18.384 39.0727 18.5304 39.1866C18.6769 39.3005 18.8315 39.4226 18.9943 39.5528C19.9058 40.2689 20.8009 40.9769 21.6799 41.6768C22.5588 42.3767 23.4051 43.0847 24.2189 43.8008L25.0002 44.4844L25.7814 43.8008C26.5952 43.1172 27.4416 42.4255 28.3205 41.7256C29.1994 41.0258 30.1108 40.3178 31.0548 39.6016L31.592 39.1622C32.4383 38.5111 33.2847 37.8519 34.131 37.1846C34.9774 36.5173 35.8237 35.8419 36.6701 35.1583C38.5256 33.6283 40.2996 32.0089 41.9923 30.2999C43.6851 28.5909 45.1173 26.7598 46.2892 24.8067C47.0705 23.5697 47.7052 22.2839 48.1935 20.9493C48.6493 19.6146 48.9585 18.2393 49.1213 16.8233C49.284 15.4073 49.2677 13.9831 49.0724 12.5508C48.8446 11.1511 48.4214 9.76764 47.8029 8.40045C46.9891 6.64264 45.866 5.12897 44.4338 3.85944C43.0015 2.62246 41.4146 1.70286 39.673 1.10065C37.9315 0.498432 36.1167 0.262432 34.2287 0.392639C32.3081 0.490295 30.4689 1.04368 28.7111 2.0528C27.9624 2.47597 27.2788 2.96425 26.6603 3.51764C26.0418 4.07103 25.4884 4.67324 25.0002 5.32428ZM4.34587 9.37701C5.02946 7.91217 5.95719 6.65892 7.12907 5.61725C8.3335 4.57558 9.65999 3.80247 11.1086 3.29791C12.5571 2.79335 14.0627 2.5899 15.6252 2.68756C17.1877 2.78522 18.6851 3.25722 20.1174 4.10358C20.9637 4.55931 21.6961 5.10455 22.3146 5.73932C22.9331 6.37408 23.5028 7.11464 24.0236 7.961L25.0002 9.62115L25.9767 8.00983C26.5301 7.13092 27.1079 6.37408 27.7101 5.73932C28.3123 5.10455 29.0366 4.55931 29.883 4.10358C31.3153 3.28978 32.8127 2.83405 34.3752 2.73639C35.9702 2.60618 37.4839 2.79335 38.9162 3.29791C40.3485 3.80247 41.6668 4.57558 42.8713 5.61725C44.0431 6.65892 44.9709 7.91217 45.6545 9.37701C46.7287 11.6557 47.1112 14.0482 46.8019 16.5547C46.4927 19.0613 45.6707 21.3887 44.3361 23.5372L44.2873 23.586C43.2131 25.3764 41.8784 27.0772 40.2834 28.6885C38.6883 30.2999 36.9793 31.8542 35.1564 33.3516C34.3426 34.0352 33.5207 34.7025 32.6906 35.3536C31.8605 36.0046 31.0223 36.6557 30.1759 37.3067L29.6388 37.7462C28.825 38.3321 28.0356 38.9343 27.2707 39.5528C26.5057 40.1713 25.7489 40.7735 25.0002 41.3594C24.284 40.7409 23.5435 40.1306 22.7785 39.5284C22.0135 38.9262 21.2241 38.3158 20.4103 37.6973C20.2801 37.5671 20.1418 37.445 19.9953 37.3311C19.8488 37.2172 19.6942 37.1114 19.5314 37.0137C18.7502 36.3952 17.9689 35.7768 17.1877 35.1583C16.4064 34.5398 15.6414 33.9213 14.8927 33.3028C13.0698 31.8054 11.3608 30.251 9.76579 28.6397C8.17074 27.0284 6.80355 25.3275 5.66423 23.5372C4.36214 21.3887 3.54834 19.0613 3.22282 16.5547C2.8973 14.0482 3.27165 11.6557 4.34587 9.37701Z" fill="#E61F7F"/>
</svg>
