<svg width="17" height="16" viewBox="0 0 17 16" fill="none" xmlns="http://www.w3.org/2000/svg">
<path d="M14.5433 7.16406V13.1663C14.5433 13.6451 14.3752 14.1042 14.076 14.4428C13.7769 14.7813 13.3711 14.9715 12.948 14.9715H4.43317C4.01008 14.9715 3.60433 14.7813 3.30516 14.4428C3.00599 14.1042 2.83789 13.6451 2.83789 13.1663V9.36188" stroke="#90969B" stroke-width="1.5" stroke-linecap="round" stroke-linejoin="round"/>
<path d="M3.68536 1.00001C3.43783 0.999863 3.19638 1.08659 2.99424 1.24825C2.7921 1.4099 2.63922 1.63852 2.55671 1.9026L1.60752 5.01655C1.25656 6.15382 1.87874 7.16021 3.02335 7.16021C3.43889 7.14863 3.84566 7.02257 4.20842 6.79294C4.57119 6.56331 4.879 6.23705 5.10518 5.84243C5.22273 6.24071 5.45175 6.58479 5.7576 6.82258C6.06345 7.06036 6.42946 7.17889 6.80017 7.16021C6.97616 6.7642 7.24591 6.43132 7.57936 6.19871C7.91282 5.96611 8.29686 5.84294 8.68858 5.84294C9.0803 5.84294 9.4643 5.96611 9.79775 6.19871C10.1312 6.43132 10.401 6.7642 10.577 7.16021V7.16021C10.947 7.17789 11.3121 7.0589 11.6172 6.82119C11.9222 6.58348 12.1506 6.23994 12.268 5.84243C12.4953 6.23686 12.8039 6.56288 13.1673 6.79243C13.5306 7.02199 13.9378 7.1482 14.3538 7.16021C15.4984 7.16021 16.1166 6.15382 15.7696 5.01655L14.8205 1.9026C14.7377 1.6378 14.5843 1.40866 14.3813 1.24694C14.1784 1.08522 13.936 0.998927 13.6878 1.00001H3.68536Z" stroke="#90969B" stroke-width="1.5" stroke-linecap="round" stroke-linejoin="round"/>
<path d="M10.4101 14.9717H6.98828V11.4696C6.98828 10.9825 7.15927 10.5153 7.46368 10.1708C7.76809 9.82633 8.18096 9.63281 8.61146 9.63281H8.77499C9.20549 9.63281 9.61836 9.82633 9.92277 10.1708C10.2272 10.5153 10.3982 10.9825 10.3982 11.4696L10.4101 14.9717Z" stroke="#90969B" stroke-width="1.5" stroke-linecap="round" stroke-linejoin="round"/>
</svg>
