<svg width="51" height="50" viewBox="0 0 51 50" fill="none" xmlns="http://www.w3.org/2000/svg">
<path d="M27.9081 50H22.2481C21.9213 49.9987 21.6048 49.8859 21.3507 49.6803C21.0967 49.4747 20.9204 49.1886 20.851 48.8693L20.2081 45.855C17.932 45.3265 15.7585 44.4264 13.7753 43.1907L11.1867 44.8671C10.9119 45.0434 10.5853 45.1208 10.2607 45.0865C9.9361 45.0522 9.63286 44.9083 9.40098 44.6786L5.40098 40.6786C5.17124 40.4467 5.02731 40.1435 4.99291 39.8189C4.9585 39.4944 5.03567 39.1677 5.2117 38.8929L6.88813 36.3036C5.65336 34.3215 4.75346 32.1496 4.22455 29.875L1.20955 29.2321C0.889244 29.1627 0.602343 28.9857 0.39652 28.7306C0.190697 28.4756 0.0783432 28.1578 0.078125 27.83V22.17C0.0794459 21.8432 0.192218 21.5266 0.397806 21.2726C0.603395 21.0186 0.889497 20.8423 1.20884 20.7729L4.22312 20.13C4.75166 17.8542 5.65157 15.681 6.8867 13.6979L5.21098 11.1086C5.03486 10.8338 4.95757 10.5072 4.99185 10.1826C5.02613 9.85804 5.16992 9.5548 5.39955 9.32286L9.39955 5.32286C9.63136 5.09299 9.93462 4.94904 10.2593 4.91475C10.5839 4.88047 10.9106 4.95791 11.1853 5.13429L13.7731 6.81071C15.7568 5.57359 17.931 4.6722 20.2081 4.14286L20.851 1.12857C20.9208 0.809625 21.0973 0.524013 21.3513 0.318846C21.6053 0.113679 21.9216 0.00121332 22.2481 0H27.9081C28.2349 0.00132094 28.5515 0.114093 28.8055 0.319681C29.0596 0.52527 29.2358 0.811372 29.3053 1.13071L29.9481 4.145C32.2243 4.67345 34.3977 5.57363 36.381 6.80929L38.9696 5.13286C39.2442 4.95635 39.5709 4.87884 39.8956 4.91313C40.2203 4.94741 40.5235 5.09145 40.7553 5.32143L44.7553 9.32143C44.985 9.55329 45.1289 9.85648 45.1633 10.1811C45.1978 10.5056 45.1206 10.8323 44.9446 11.1071L43.2681 13.6964C44.5046 15.6796 45.4057 17.853 45.9353 20.1293L48.9503 20.7721C49.2692 20.8422 49.5547 21.0188 49.7598 21.2729C49.9648 21.527 50.0771 21.8435 50.0781 22.17V27.83C50.0768 28.1567 49.9642 28.4732 49.7587 28.7272C49.5533 28.9812 49.2673 29.1576 48.9481 29.2271L45.9331 29.87C45.4042 32.1446 44.5043 34.3165 43.2696 36.2986L44.9453 38.8871C45.1214 39.1619 45.1987 39.4885 45.1644 39.8131C45.1301 40.1377 44.9863 40.4409 44.7567 40.6729L40.7567 44.6729C40.5249 44.9027 40.2216 45.0467 39.897 45.081C39.5723 45.1152 39.2457 45.0378 38.971 44.8614L36.3831 43.185C34.3999 44.4207 32.2264 45.3208 29.9503 45.8493L29.3074 48.8636C29.239 49.1843 29.0629 49.472 28.8084 49.6788C28.5538 49.8855 28.2361 49.9989 27.9081 50ZM13.7717 41.6279C13.9099 41.6279 14.0451 41.6681 14.161 41.7436C16.2311 43.0962 18.5356 44.0505 20.956 44.5571C21.0916 44.5854 21.2161 44.6525 21.3143 44.7503C21.4124 44.8481 21.48 44.9723 21.5088 45.1079L22.2474 48.5714H27.9081L28.6496 45.1079C28.6784 44.9723 28.746 44.8481 28.8441 44.7503C28.9423 44.6525 29.0668 44.5854 29.2024 44.5571C31.6228 44.0505 33.9273 43.0962 35.9974 41.7436C36.1132 41.6684 36.2483 41.6284 36.3863 41.6284C36.5244 41.6284 36.6595 41.6684 36.7753 41.7436L39.7488 43.6721L43.7488 39.6721L41.8203 36.6986C41.7451 36.5828 41.7051 36.4477 41.7051 36.3096C41.7051 36.1716 41.7451 36.0365 41.8203 35.9207C43.173 33.8506 44.1274 31.5461 44.6346 29.1257C44.6626 28.9898 44.7296 28.865 44.8274 28.7666C44.9252 28.6682 45.0496 28.6003 45.1853 28.5714L48.6496 27.83V22.17L45.1853 21.4286C45.05 21.3995 44.9261 21.3318 44.8286 21.2337C44.7311 21.1355 44.6642 21.0112 44.636 20.8757C44.1288 18.4553 43.1744 16.1509 41.8217 14.0807C41.7465 13.9649 41.7065 13.8298 41.7065 13.6918C41.7065 13.5537 41.7465 13.4186 41.8217 13.3029L43.7503 10.33L39.7503 6.33L36.7774 8.25857C36.6616 8.33374 36.5265 8.37374 36.3885 8.37374C36.2504 8.37374 36.1153 8.33374 35.9996 8.25857C33.9283 6.90465 31.6223 5.94969 29.2003 5.44286C29.065 5.4142 28.941 5.34692 28.8433 5.24916C28.7455 5.15141 28.6782 5.02739 28.6496 4.89214L27.9088 1.42857H22.2481L21.5067 4.89214C21.4779 5.02767 21.4103 5.15189 21.3121 5.24967C21.214 5.34745 21.0895 5.41457 20.9538 5.44286C18.5334 5.94954 16.2289 6.90376 14.1588 8.25643C14.043 8.3316 13.908 8.3716 13.7699 8.3716C13.6319 8.3716 13.4968 8.3316 13.381 8.25643L10.4074 6.32786L6.40741 10.3279L8.33598 13.3014C8.41115 13.4172 8.45115 13.5523 8.45115 13.6904C8.45115 13.8284 8.41115 13.9635 8.33598 14.0793C6.98327 16.1494 6.02883 18.4539 5.5217 20.8743C5.49366 21.0102 5.42665 21.135 5.32885 21.2334C5.23105 21.3318 5.1067 21.3997 4.97098 21.4286L1.5067 22.17V27.83L4.97098 28.5714C5.10625 28.6005 5.23016 28.6682 5.32767 28.7663C5.42518 28.8645 5.49209 28.9888 5.52027 29.1243C6.0274 31.5447 6.98184 33.8491 8.33455 35.9193C8.40972 36.0351 8.44972 36.1702 8.44972 36.3082C8.44972 36.4463 8.40972 36.5814 8.33455 36.6971L6.40598 39.67L10.406 43.67L13.3788 41.7414C13.4959 41.6661 13.6325 41.6266 13.7717 41.6279Z" fill="#E61F7F"/>
<path d="M35.0994 14.9644C34.9169 14.9645 34.7413 14.8947 34.6086 14.7694C34.1068 14.2968 33.5693 13.8636 33.0008 13.4737C32.9236 13.4204 32.8576 13.3524 32.8067 13.2736C32.7558 13.1948 32.7209 13.1067 32.704 13.0144C32.6872 12.9221 32.6886 12.8274 32.7083 12.7357C32.7281 12.6439 32.7657 12.557 32.819 12.4798C32.8723 12.4026 32.9403 12.3366 33.0191 12.2857C33.098 12.2348 33.186 12.1999 33.2783 12.183C33.3706 12.1662 33.4653 12.1676 33.5571 12.1874C33.6488 12.2071 33.7357 12.2447 33.8129 12.298C34.4415 12.7294 35.0359 13.2087 35.5908 13.7316C35.6946 13.8299 35.7665 13.957 35.7972 14.0966C35.8279 14.2362 35.816 14.3818 35.7631 14.5146C35.7102 14.6474 35.6186 14.7613 35.5003 14.8414C35.382 14.9216 35.2423 14.9645 35.0994 14.9644Z" fill="#E61F7F"/>
<path d="M25.0776 40.4141C21.365 40.4136 17.7772 39.0732 14.9737 36.6393C12.1702 34.2054 10.3392 30.8415 9.81721 27.1657C9.29525 23.4899 10.1174 19.7493 12.1325 16.6311C14.1477 13.5129 17.2205 11.2268 20.7862 10.1927C20.8774 10.1626 20.9738 10.1512 21.0695 10.1592C21.1652 10.1672 21.2583 10.1944 21.3433 10.2392C21.4282 10.284 21.5033 10.3455 21.5639 10.42C21.6246 10.4945 21.6696 10.5804 21.6962 10.6727C21.7229 10.7649 21.7307 10.8616 21.7191 10.957C21.7076 11.0523 21.6769 11.1444 21.629 11.2276C21.581 11.3108 21.5168 11.3835 21.4401 11.4413C21.3634 11.4992 21.2758 11.5409 21.1826 11.5641C18.2773 12.417 15.7252 14.1857 13.9069 16.6069C12.0885 19.028 11.1011 21.9719 11.0919 24.9999C11.0925 27.0895 11.5612 29.1525 12.4638 31.0372C13.3664 32.9218 14.6799 34.5803 16.3077 35.8907C17.9354 37.201 19.8362 38.13 21.8701 38.6092C23.9041 39.0885 26.0196 39.1058 28.0611 38.6601C30.1027 38.2143 32.0184 37.3167 33.6675 36.0332C35.3166 34.7498 36.6571 33.1131 37.5905 31.2435C38.5239 29.3739 39.0265 27.3189 39.0614 25.2295C39.0963 23.1402 38.6625 21.0695 37.7919 19.1699C37.7526 19.0846 37.7305 18.9924 37.7268 18.8986C37.7231 18.8048 37.738 18.7112 37.7705 18.6231C37.803 18.535 37.8525 18.4542 37.9162 18.3852C37.98 18.3163 38.0567 18.2606 38.1419 18.2213C38.2272 18.182 38.3194 18.1599 38.4132 18.1562C38.507 18.1525 38.6006 18.1673 38.6887 18.1998C38.7768 18.2323 38.8576 18.2819 38.9265 18.3456C38.9955 18.4093 39.0512 18.486 39.0905 18.5713C40.1674 20.92 40.6367 23.5016 40.4554 26.0791C40.274 28.6565 39.4478 31.147 38.0527 33.3218C36.6575 35.4965 34.7381 37.2857 32.4709 38.525C30.2037 39.7643 27.6614 40.4139 25.0776 40.4141Z" fill="#E61F7F"/>
<path d="M28.8573 11.5074C28.7933 11.5075 28.7297 11.4991 28.668 11.4824C28.0122 11.3056 27.3434 11.1812 26.668 11.1102C26.4817 11.0873 26.3119 10.9919 26.1953 10.8447C26.0788 10.6975 26.0249 10.5104 26.0452 10.3238C26.0656 10.1372 26.1586 9.96608 26.3042 9.84751C26.4497 9.72894 26.6361 9.67244 26.823 9.69023C27.5722 9.76949 28.3141 9.90778 29.0415 10.1038C29.2086 10.1492 29.3535 10.2537 29.4493 10.3979C29.545 10.5422 29.5852 10.7163 29.5622 10.8878C29.5392 11.0594 29.4547 11.2168 29.3244 11.3308C29.1941 11.4448 29.0268 11.5075 28.8537 11.5074H28.8573Z" fill="#E61F7F"/>
<path d="M37.3072 33.8714C37.1984 33.8715 37.091 33.8468 36.9932 33.7992C36.8954 33.7515 36.8098 33.6821 36.7429 33.5964C35.357 31.8263 33.5865 30.3948 31.5655 29.4104C29.5445 28.426 27.3259 27.9144 25.0779 27.9144C22.8299 27.9144 20.6113 28.426 18.5903 29.4104C16.5692 30.3948 14.7987 31.8263 13.4129 33.5964C13.2964 33.7458 13.1253 33.8429 12.9372 33.8662C12.7491 33.8895 12.5595 33.8372 12.41 33.7206C12.2606 33.6041 12.1635 33.433 12.1402 33.245C12.1169 33.0569 12.1692 32.8673 12.2857 32.7178C13.8053 30.7764 15.7468 29.2064 17.9632 28.1267C20.1795 27.047 22.6125 26.4858 25.0779 26.4858C27.5432 26.4858 29.9763 27.047 32.1926 28.1267C34.4089 29.2064 36.3504 30.7764 37.87 32.7178C37.9523 32.8233 38.0033 32.9497 38.0172 33.0828C38.0311 33.2158 38.0074 33.3501 37.9487 33.4703C37.8901 33.5905 37.7989 33.6919 37.6854 33.7628C37.572 33.8337 37.4409 33.8713 37.3072 33.8714Z" fill="#E61F7F"/>
<path d="M25.0778 27.9115C23.9857 27.9117 22.9182 27.5879 22.0101 26.9813C21.102 26.3747 20.3942 25.5124 19.9762 24.5035C19.5582 23.4946 19.4487 22.3844 19.6617 21.3133C19.8746 20.2422 20.4004 19.2584 21.1726 18.4861C21.9448 17.7138 22.9286 17.1879 23.9997 16.9748C25.0707 16.7617 26.1809 16.871 27.1899 17.2889C28.1988 17.7068 29.0612 18.4145 29.6679 19.3225C30.2747 20.2305 30.5985 21.298 30.5985 22.3901C30.597 23.8539 30.0149 25.2573 28.9799 26.2924C27.9449 27.3275 26.5416 27.9098 25.0778 27.9115ZM25.0778 18.2972C24.2683 18.2971 23.4769 18.537 22.8037 18.9866C22.1306 19.4363 21.6059 20.0755 21.296 20.8233C20.9861 21.5712 20.905 22.3941 21.0628 23.1881C21.2206 23.9821 21.6104 24.7115 22.1828 25.2839C22.7551 25.8564 23.4844 26.2463 24.2784 26.4042C25.0723 26.5622 25.8953 26.4812 26.6432 26.1715C27.3911 25.8617 28.0304 25.3371 28.4801 24.664C28.9299 23.9909 29.17 23.1996 29.17 22.3901C29.1688 21.3051 28.7373 20.2648 27.9702 19.4975C27.203 18.7302 26.1628 18.2985 25.0778 18.2972Z" fill="#E61F7F"/>
</svg>
