<svg width="37" height="37" viewBox="0 0 37 37" fill="none" xmlns="http://www.w3.org/2000/svg">
<path d="M27.6594 30.9991C29.605 30.9991 31.1822 29.4446 31.1822 27.5269C31.1822 25.6093 29.605 24.0547 27.6594 24.0547C25.7139 24.0547 24.1367 25.6093 24.1367 27.5269C24.1367 29.4446 25.7139 30.9991 27.6594 30.9991Z" stroke="#777335" stroke-width="2.81818" stroke-linecap="round" stroke-linejoin="round"/>
<path d="M9.34109 30.9991C11.2866 30.9991 12.8638 29.4446 12.8638 27.5269C12.8638 25.6093 11.2866 24.0547 9.34109 24.0547C7.39554 24.0547 5.81836 25.6093 5.81836 27.5269C5.81836 29.4446 7.39554 30.9991 9.34109 30.9991Z" stroke="#777335" stroke-width="2.81818" stroke-linecap="round" stroke-linejoin="round"/>
<path d="M24.1367 12.9453H29.7731L34.0004 17.112V24.0564H24.1367V12.9453Z" stroke="#777335" stroke-width="2.81818" stroke-linecap="round" stroke-linejoin="round"/>
<path d="M24.1364 6H3V24.0556H24.1364V6Z" stroke="#777335" stroke-width="2.81818" stroke-linecap="round" stroke-linejoin="round"/>
</svg>
