<svg width="47" height="50" viewBox="0 0 47 50" fill="none" xmlns="http://www.w3.org/2000/svg">
<path d="M45.0296 26.1213C42.732 23.834 40.0758 25.9749 40.0758 25.9749V13.9337C40.0758 13.5293 39.7481 13.2012 39.3437 13.2012C38.939 13.2012 38.6113 13.5293 38.6113 13.9337V27.0052C38.6113 27.0052 35.1189 29.7583 33.6178 30.4312V8.75061C33.6178 7.74275 34.4376 6.92297 35.4455 6.92297H36.7837C37.7915 6.92297 38.6113 7.74275 38.6113 8.75061V10.9353C38.6113 11.34 38.939 11.6677 39.3437 11.6677C39.7481 11.6677 40.0758 11.34 40.0758 10.9353V8.75061C40.0758 6.93518 38.5991 5.4585 36.7837 5.4585H35.4455C33.63 5.4585 32.153 6.93518 32.153 8.75061V31.0118C31.7162 31.1343 31.268 31.2174 30.8125 31.2613V15.8204C30.8125 13.9959 29.3282 12.5115 27.504 12.5115H26.1982C24.374 12.5115 22.8897 13.9959 22.8897 15.8204V23.2828L21.5488 23.9946V21.5112C21.5488 19.8686 20.2125 18.5323 18.5703 18.5323H16.6049C14.9623 18.5323 13.6264 19.8686 13.6264 21.5112V28.2L11.2349 29.4692L4.51949 31.3883C3.35104 31.7221 2.37523 32.4874 1.7725 33.5425C1.16939 34.5981 1.00574 35.8272 1.31168 37.0032L2.0628 39.8933C2.16427 40.2847 2.56406 40.5193 2.95583 40.4178C3.34722 40.3159 3.58221 39.9162 3.48035 39.5244L2.72923 36.6347C2.29359 34.9585 3.25681 33.2724 4.92232 32.7967L11.0621 31.042L15.6768 43.3582C15.9858 44.1829 15.937 46.5359 13.4959 47.4029L8.85607 48.457C7.23901 48.8239 5.64559 47.8546 5.22826 46.2494L4.28641 42.625C4.18455 42.2336 3.78477 41.9986 3.39338 42.1001C3.00161 42.2019 2.767 42.6017 2.86847 42.9935L3.81071 46.6183C4.34019 48.6546 6.14914 50 8.16293 50C9.64266 50 13.8206 48.8312 13.8206 48.8312C15.092 48.5428 16.1761 47.7188 16.7945 46.5713C17.3049 45.6245 17.4564 44.535 17.2374 43.497L33.2898 39.5671C34.6173 39.2417 35.8777 38.6111 36.9336 37.7433L44.7454 31.3246C47.1269 29.2124 45.73 26.8183 45.0296 26.1213ZM26.1982 13.9764H27.504C28.5206 13.9764 29.3476 14.8038 29.3476 15.8204V31.2979L24.7261 31.296C24.3015 31.2922 24.5952 31.0118 24.6185 30.9928L25.9495 29.9147C27.1912 28.9088 28.0022 27.5103 28.3596 25.7574C28.5866 24.6454 28.1624 23.5323 27.2534 22.8525C26.4042 22.2177 25.312 22.0957 24.3545 22.5153V15.8204C24.3545 14.8038 25.1816 13.9764 26.1982 13.9764ZM15.0912 21.5112C15.0912 20.6766 15.7703 19.9972 16.6049 19.9972H18.5703C19.4049 19.9972 20.0843 20.6766 20.0843 21.5112V24.7721L15.0909 27.4226V21.5112H15.0912ZM43.8158 30.1932L36.0036 36.6118C35.1163 37.3412 34.0573 37.8711 32.9415 38.1442L16.7709 42.1035L12.4221 30.498L24.839 23.9069C25.3437 23.6387 25.9186 23.6834 26.376 24.0255C26.8333 24.3677 27.0386 24.9056 26.9245 25.4648C26.6365 26.8759 25.9983 27.9902 25.0275 28.7764L23.6965 29.8548C23.151 30.2966 22.95 31.0095 23.1842 31.6714C23.4184 32.3329 24.0234 32.7609 24.7253 32.7609L30.0618 32.7632H30.0656C31.9653 32.7632 33.791 32.1856 35.3451 31.0927L41.3091 26.8988C42.1441 26.3113 43.2683 26.4151 43.9817 27.1452C44.3925 27.5648 45.1967 28.8119 43.8158 30.1932Z" fill="#E61F7F"/>
<path d="M12.8715 43.8277C12.8715 42.2366 11.5772 40.9419 9.98605 40.9419C8.39492 40.9419 7.10059 42.2366 7.10059 43.8277C7.10059 45.4185 8.39492 46.7132 9.98605 46.7132C11.5772 46.7132 12.8715 45.4185 12.8715 43.8277ZM8.56544 43.8277C8.56544 43.0442 9.2025 42.4067 9.98605 42.4067C10.7692 42.4067 11.4066 43.0442 11.4066 43.8277C11.4066 44.6109 10.7696 45.2483 9.98605 45.2483C9.2025 45.2483 8.56544 44.6109 8.56544 43.8277Z" fill="#E61F7F"/>
<path d="M4.71924 22.9963L15.3661 12.2674L17.761 13.506C18.619 13.9497 19.6631 13.7979 20.3589 13.128L26.1542 7.54934C26.1542 7.54934 25.9947 10.4146 28.4076 10.4146C29.6496 10.4146 30.6605 9.40368 30.6605 8.16123V2.25298C30.6605 2.24611 30.6601 2.23886 30.6601 2.23162C30.6521 0.690084 29.5249 0 28.4076 0H22.5508C21.3083 0 20.2978 1.0109 20.2978 2.25298C20.2978 4.7295 22.8182 4.50596 22.8182 4.50596L18.3969 8.76166L15.9673 7.50509C15.0888 7.05038 14.0302 7.21708 13.3329 7.91899L1.52098 19.8221C0.645877 20.704 0.651218 22.1334 1.53318 23.0085C1.95814 23.4301 3.40927 24.3063 4.71924 22.9963ZM2.56049 20.854L14.3724 8.95087C14.525 8.79752 14.7699 8.52897 15.2944 8.8063L18.1902 10.304C18.469 10.4482 18.8086 10.3989 19.0348 10.1811L25.1429 4.30149C25.3581 4.09435 25.426 3.77696 25.3142 3.50001C25.2024 3.22268 24.9339 3.04148 24.6348 3.04148H22.5508C22.1163 3.04148 21.7627 2.68786 21.7627 2.25298C21.7627 1.81848 22.1163 1.46486 22.5508 1.46486H28.4076C28.6231 1.46486 29.1953 1.46485 29.1953 2.2484C29.1953 2.25488 29.1957 2.26137 29.1957 2.26824V8.16123C29.1957 8.59572 28.842 8.94935 28.4076 8.94935C27.9727 8.94935 27.619 8.59572 27.619 8.16123V5.82776C27.619 5.53402 27.4436 5.26852 27.1735 5.1537C26.9034 5.03849 26.5906 5.09647 26.3789 5.30018L19.343 12.0728C19.0996 12.3071 18.7342 12.3605 18.4343 12.2052L15.5618 10.7194C15.2776 10.5725 14.9309 10.6271 14.7054 10.854L3.67973 21.9644C3.19907 22.4451 2.71346 22.1163 2.56468 21.9686C2.25645 21.6623 2.25455 21.1622 2.56049 20.854Z" fill="#E61F7F"/>
</svg>
