<svg width="55" height="50" viewBox="0 0 55 50" fill="none" xmlns="http://www.w3.org/2000/svg">
<path d="M22.9689 49.7557C22.8435 49.7557 22.7184 49.7285 22.602 49.6744C22.544 49.6473 16.6316 46.7965 10.9882 40.5796C7.82676 37.0969 5.36759 33.2401 3.67884 29.1169C1.57788 23.9865 0.670418 18.4282 0.981484 12.5963C1.0036 12.1841 1.31213 11.844 1.72036 11.7824C7.1448 10.9626 12.1889 8.89757 16.7121 5.64478C19.9217 3.33644 21.7976 1.17166 22.2961 0.563309C22.4614 0.361732 22.7083 0.244629 22.9693 0.244629C23.23 0.244629 23.4772 0.361732 23.6426 0.563309L23.6774 0.606089C24.6642 1.82026 28.3938 6.01386 34.9595 8.99727C35.3971 9.19594 35.5903 9.71185 35.3917 10.1494C35.193 10.587 34.6771 10.7806 34.2395 10.5816C31.1132 9.16114 28.2415 7.32809 25.7033 5.13323C24.9611 4.49116 23.9395 3.54853 22.9613 2.44892C22.014 3.48762 20.2574 5.23837 17.7279 7.05727C15.6357 8.56185 13.3893 9.84599 11.0516 10.8735C8.37565 12.0496 5.56518 12.8947 2.68764 13.3884C2.32835 23.2498 5.55213 32.0017 12.2767 39.4096C14.4382 41.7908 16.9927 44.0252 19.664 45.871C21.2157 46.943 22.4037 47.6094 22.9704 47.9092C24.0921 47.3201 27.6204 45.3268 31.4196 41.7524C37.2733 36.2446 41.005 29.727 42.5103 22.3804C42.6067 21.9094 43.0672 21.6063 43.5374 21.7028C44.0083 21.7992 44.3118 22.2589 44.215 22.7299C43.3481 26.9601 41.7428 30.9905 39.4435 34.7092C37.5963 37.6969 35.2978 40.4929 32.612 43.0199C27.7506 47.5938 23.3797 49.6538 23.3362 49.6741C23.2195 49.7285 23.094 49.7557 22.9689 49.7557Z" fill="#E61F7F"/>
<path d="M22.969 44.6674C22.8435 44.6674 22.7185 44.6402 22.6021 44.5862C22.556 44.5648 17.869 42.3051 13.4035 37.3853C10.9012 34.6285 8.95432 31.5751 7.61724 28.3104C5.95315 24.2473 5.23457 19.8459 5.48074 15.2292C5.50286 14.817 5.81139 14.477 6.21962 14.4153C10.4593 13.7747 14.4016 12.1606 17.9372 9.61809C20.4449 7.81441 21.9078 6.12675 22.2961 5.65218C22.4614 5.4506 22.7083 5.3335 22.9693 5.3335C23.2304 5.3335 23.4773 5.4506 23.6426 5.65218L23.6781 5.69604C24.6226 6.86236 28.1966 10.8428 34.5415 13.0913C34.9943 13.2519 35.2314 13.749 35.0712 14.2022C34.9106 14.655 34.4135 14.8921 33.9604 14.7318C30.8975 13.6464 28.0871 12.0671 25.6072 10.0372C24.8879 9.44842 23.9015 8.57649 22.9596 7.53199C22.1808 8.36875 20.8372 9.67646 18.9538 11.0313C17.2966 12.223 15.5175 13.2399 13.666 14.0539C11.5922 14.9653 9.41693 15.6255 7.18943 16.0203C6.94653 23.6697 9.46878 30.4617 14.6927 36.2168C18.2178 40.1001 21.832 42.2104 22.9708 42.8206C23.9736 42.2869 26.8816 40.6105 29.9158 37.6594C34.7043 33.0025 37.5793 27.479 38.461 21.2432C38.5285 20.7675 38.9686 20.4362 39.4443 20.5036C39.9199 20.5707 40.2513 21.0112 40.1839 21.4868C37.9005 37.6376 23.482 44.5195 23.3366 44.5873C23.2195 44.6402 23.0941 44.6674 22.969 44.6674Z" fill="#E61F7F"/>
<path d="M44.0863 23.4519C41.2062 23.4519 38.4983 22.3305 36.4619 20.2948C34.4251 18.2587 33.3037 15.5516 33.3037 12.6722C33.3037 9.79286 34.4254 7.08572 36.4619 5.04965C38.4983 3.01358 41.2062 1.89258 44.0863 1.89258C46.9663 1.89258 49.6742 3.01394 51.7106 5.04965C53.7474 7.08572 54.8688 9.79286 54.8688 12.6722C54.8688 15.5516 53.7471 18.2587 51.7106 20.2948C49.6738 22.3305 46.9663 23.4519 44.0863 23.4519ZM44.0863 3.63245C39.1001 3.63245 35.0439 7.68755 35.0439 12.6719C35.0439 17.6562 39.1005 21.7113 44.0863 21.7113C49.072 21.7113 53.1286 17.6565 53.1286 12.6722C53.1286 7.68791 49.072 3.63245 44.0863 3.63245Z" fill="#E61F7F"/>
<path d="M41.3508 16.8819C41.1155 16.8819 40.8813 16.7869 40.7102 16.6006L38.4102 14.099C38.085 13.7451 38.1082 13.1948 38.4617 12.8696C38.8152 12.5444 39.3659 12.5676 39.6911 12.9211L41.4215 14.8031L48.5536 8.67129C48.9179 8.35804 49.4672 8.39938 49.7804 8.76374C50.0937 9.1281 50.0523 9.67736 49.688 9.99096L41.9179 16.6716C41.7536 16.8123 41.5517 16.8819 41.3508 16.8819Z" fill="#E61F7F"/>
<path d="M23.4384 29.727C20.8042 29.727 18.6611 27.5839 18.6611 24.9497C18.6611 22.3154 20.8042 20.1724 23.4384 20.1724C26.0727 20.1724 28.2157 22.3154 28.2157 24.9497C28.2157 27.5839 26.0723 29.727 23.4384 29.727ZM23.4384 21.913C21.7638 21.913 20.4014 23.2754 20.4014 24.95C20.4014 26.6246 21.7638 27.9871 23.4384 27.9871C25.113 27.9871 26.4755 26.6246 26.4755 24.95C26.4755 23.2754 25.1127 21.913 23.4384 21.913Z" fill="#E61F7F"/>
<path d="M24.5336 35.543H21.8866C21.4436 35.543 21.0709 35.2098 21.022 34.7693L20.807 32.8431C20.3034 32.6752 19.8179 32.4599 19.355 32.1985L17.883 33.3746C17.5368 33.6512 17.0379 33.6236 16.7247 33.31L14.8529 31.4382C14.5396 31.1249 14.5117 30.6261 14.7883 30.2798L16.0268 28.7303C15.79 28.2673 15.5982 27.7848 15.4529 27.2859L13.5549 27.0742C13.1144 27.0249 12.7812 26.6526 12.7812 26.2095V23.5626C12.7812 23.1192 13.1144 22.7468 13.5549 22.6979L15.4924 22.4818C15.6501 21.9724 15.8567 21.4808 16.1098 21.0109L14.9497 19.5593C14.673 19.2131 14.7006 18.7142 15.0142 18.401L16.886 16.5291C17.1993 16.2155 17.6981 16.188 18.0444 16.4646L19.4953 17.624C19.9927 17.3554 20.5144 17.1397 21.0553 16.9783L21.2504 15.2312C21.2997 14.7907 21.672 14.4575 22.1151 14.4575H24.762C25.2051 14.4575 25.5778 14.7907 25.6267 15.2312L25.8217 16.9783C26.392 17.1484 26.9406 17.3789 27.4619 17.6679L28.7656 16.6259C29.1119 16.3493 29.6107 16.3768 29.924 16.6905L31.7958 18.5623C32.1091 18.8755 32.137 19.3748 31.8603 19.7206L30.7919 21.0577C31.0772 21.5946 31.3009 22.1588 31.4615 22.7443L33.0937 22.9263C33.5342 22.9756 33.8674 23.3479 33.8674 23.791V26.4379C33.8674 26.8813 33.5342 27.2537 33.0937 27.3026L31.36 27.4962C31.1788 28.0611 30.938 28.6027 30.64 29.1164L31.699 30.4415C31.9756 30.7878 31.9481 31.2866 31.6345 31.5999L29.7626 33.4717C29.4494 33.785 28.9502 33.8129 28.6043 33.5363L27.1672 32.3877C26.6647 32.64 26.1401 32.8398 25.5977 32.9852L25.3987 34.7696C25.3493 35.2098 24.977 35.543 24.5336 35.543ZM22.665 33.8027H23.7552L23.9365 32.1771C23.9789 31.796 24.2661 31.4875 24.6431 31.4179C25.4103 31.2761 26.1397 31.0006 26.8104 30.5993C27.1218 30.4129 27.5167 30.4394 27.8005 30.6663L29.0825 31.6909L29.8533 30.9201L28.8933 29.7186C28.6536 29.4188 28.6387 28.9972 28.857 28.681C29.3174 28.0139 29.6463 27.2779 29.8348 26.493C29.9204 26.1366 30.2202 25.8723 30.5842 25.8317L32.1268 25.6595V24.5694L30.6571 24.4055C30.2778 24.3631 29.9707 24.0788 29.899 23.7043C29.7449 22.8995 29.444 22.1385 29.0049 21.4435C28.807 21.1299 28.8294 20.7253 29.0608 20.4356L30.0146 19.2421L29.2438 18.4713L28.0746 19.4059C27.7802 19.6412 27.3673 19.6601 27.0526 19.4527C26.3746 19.006 25.63 18.6924 24.8392 18.5213C24.4742 18.4423 24.2001 18.1388 24.1587 17.7676L23.9836 16.1981H22.8934L22.7183 17.7676C22.677 18.1388 22.4029 18.4423 22.0378 18.5213C21.2732 18.687 20.5507 18.9861 19.8901 19.4099C19.5758 19.6115 19.1683 19.5905 18.8768 19.3574L17.5658 18.3096L16.795 19.0804L17.8431 20.3917C18.0759 20.6832 18.0973 21.0907 17.8961 21.4047C17.4875 22.042 17.1945 22.7385 17.026 23.4745C16.9433 23.8352 16.642 24.1038 16.2744 24.1452L14.5215 24.3409V25.4311L16.2458 25.6236C16.6192 25.6653 16.9237 25.942 17.0009 26.3096C17.1536 27.0369 17.4277 27.7286 17.8149 28.3649C18.0048 28.677 17.9795 29.0747 17.7514 29.3604L16.6341 30.7588L17.4048 31.5296L18.7466 30.4571C19.0432 30.22 19.4598 30.2026 19.7752 30.4147C20.4024 30.8364 21.0909 31.1434 21.8207 31.328C22.1723 31.4168 22.4319 31.7145 22.4722 32.0752L22.665 33.8027Z" fill="#E61F7F"/>
</svg>
