<svg width="35" height="29" viewBox="0 0 35 29" fill="none" xmlns="http://www.w3.org/2000/svg">
<path d="M26.6594 27.0005C28.605 27.0005 30.1822 25.4234 30.1822 23.4778C30.1822 21.5323 28.605 19.9551 26.6594 19.9551C24.7139 19.9551 23.1367 21.5323 23.1367 23.4778C23.1367 25.4234 24.7139 27.0005 26.6594 27.0005Z" stroke="black" stroke-width="2.81818" stroke-linecap="round" stroke-linejoin="round"/>
<path d="M8.34109 27.0005C10.2866 27.0005 11.8638 25.4234 11.8638 23.4778C11.8638 21.5323 10.2866 19.9551 8.34109 19.9551C6.39554 19.9551 4.81836 21.5323 4.81836 23.4778C4.81836 25.4234 6.39554 27.0005 8.34109 27.0005Z" stroke="black" stroke-width="2.81818" stroke-linecap="round" stroke-linejoin="round"/>
<path d="M23.1367 8.68164H28.7731L33.0004 12.9089V19.9544H23.1367V8.68164Z" stroke="black" stroke-width="2.81818" stroke-linecap="round" stroke-linejoin="round"/>
<path d="M23.1364 1.63672H2V19.9549H23.1364V1.63672Z" stroke="black" stroke-width="2.81818" stroke-linecap="round" stroke-linejoin="round"/>
</svg>
