<svg width="29" height="29" viewBox="0 0 29 29" fill="none" xmlns="http://www.w3.org/2000/svg">
<path d="M14.5 28C21.9558 28 28 21.9558 28 14.5C28 7.04416 21.9558 1 14.5 1C7.04416 1 1 7.04416 1 14.5C1 21.9558 7.04416 28 14.5 28Z" stroke="black" stroke-width="2" stroke-linecap="round" stroke-linejoin="round"/>
<path d="M14.4996 19.8996C17.4819 19.8996 19.8996 17.4819 19.8996 14.4996C19.8996 11.5173 17.4819 9.09961 14.4996 9.09961C11.5173 9.09961 9.09961 11.5173 9.09961 14.4996C9.09961 17.4819 11.5173 19.8996 14.4996 19.8996Z" stroke="black" stroke-width="2" stroke-linecap="round" stroke-linejoin="round"/>
<path d="M18.3203 18.3203L24.0443 24.0443" stroke="black" stroke-width="2" stroke-linecap="round" stroke-linejoin="round"/>
<path d="M4.95508 24.0443L10.6791 18.3203" stroke="black" stroke-width="2" stroke-linecap="round" stroke-linejoin="round"/>
<path d="M18.3203 10.6791L24.0443 4.95508" stroke="black" stroke-width="2" stroke-linecap="round" stroke-linejoin="round"/>
<path d="M18.3203 10.6796L23.0858 5.91406" stroke="black" stroke-width="2" stroke-linecap="round" stroke-linejoin="round"/>
<path d="M4.95508 4.95508L10.6791 10.6791" stroke="black" stroke-width="2" stroke-linecap="round" stroke-linejoin="round"/>
</svg>
