<svg width="27" height="30" viewBox="0 0 27 30" fill="none" xmlns="http://www.w3.org/2000/svg">
<path d="M5.5 2L1.5 7.33333V26C1.5 26.7072 1.78095 27.3855 2.28105 27.8856C2.78115 28.3857 3.45942 28.6667 4.16667 28.6667H22.8333C23.5406 28.6667 24.2189 28.3857 24.719 27.8856C25.219 27.3855 25.5 26.7072 25.5 26V7.33333L21.5 2H5.5Z" stroke="white" stroke-width="2.66667" stroke-linecap="round" stroke-linejoin="round"/>
<path d="M18.8327 12.666C18.8327 14.0805 18.2708 15.4371 17.2706 16.4373C16.2704 17.4374 14.9138 17.9993 13.4993 17.9993C12.0849 17.9993 10.7283 17.4374 9.72811 16.4373C8.72792 15.4371 8.16602 14.0805 8.16602 12.666" stroke="white" stroke-width="2.66667" stroke-linecap="round" stroke-linejoin="round"/>
<path d="M1.5 7.33398H25.5" stroke="white" stroke-width="2.66667" stroke-linecap="round" stroke-linejoin="round"/>
</svg>
