<svg width="27" height="30" viewBox="0 0 27 30" fill="none" xmlns="http://www.w3.org/2000/svg">
<path d="M5.33398 2L1.33398 7.33333V26C1.33398 26.7072 1.61494 27.3855 2.11503 27.8856C2.61513 28.3857 3.29341 28.6667 4.00065 28.6667H22.6673C23.3746 28.6667 24.0528 28.3857 24.5529 27.8856C25.053 27.3855 25.334 26.7072 25.334 26V7.33333L21.334 2H5.33398Z" stroke="#777335" stroke-width="2.66667" stroke-linecap="round" stroke-linejoin="round"/>
<path d="M18.6667 12.666C18.6667 14.0805 18.1048 15.4371 17.1046 16.4373C16.1044 17.4374 14.7478 17.9993 13.3333 17.9993C11.9188 17.9993 10.5623 17.4374 9.5621 16.4373C8.5619 15.4371 8 14.0805 8 12.666" stroke="#777335" stroke-width="2.66667" stroke-linecap="round" stroke-linejoin="round"/>
<path d="M1.33398 7.33398H25.334" stroke="#777335" stroke-width="2.66667" stroke-linecap="round" stroke-linejoin="round"/>
</svg>
