<svg width="28" height="30" viewBox="0 0 28 30" fill="none" xmlns="http://www.w3.org/2000/svg">
<path d="M6 2L2 7.33333V26C2 26.7072 2.28095 27.3855 2.78105 27.8856C3.28115 28.3857 3.95942 28.6667 4.66667 28.6667H23.3333C24.0406 28.6667 24.7189 28.3857 25.219 27.8856C25.719 27.3855 26 26.7072 26 26V7.33333L22 2H6Z" stroke="black" stroke-width="2.66667" stroke-linecap="round" stroke-linejoin="round"/>
<path d="M19.3327 12.666C19.3327 14.0805 18.7708 15.4371 17.7706 16.4373C16.7704 17.4374 15.4138 17.9993 13.9993 17.9993C12.5849 17.9993 11.2283 17.4374 10.2281 16.4373C9.22792 15.4371 8.66602 14.0805 8.66602 12.666" stroke="black" stroke-width="2.66667" stroke-linecap="round" stroke-linejoin="round"/>
<path d="M2 7.33398H26" stroke="black" stroke-width="2.66667" stroke-linecap="round" stroke-linejoin="round"/>
</svg>
