<svg width="50" height="50" viewBox="0 0 50 50" fill="none" xmlns="http://www.w3.org/2000/svg">
<path d="M14.6744 6.11595L17.4415 8.32594L16.5102 11.73C16.3893 12.1718 16.552 12.6313 16.9248 12.9005C17.1188 13.0405 17.3445 13.1108 17.5707 13.1108C17.7792 13.1108 17.9883 13.051 18.1732 12.9306L21.1435 10.9985L24.1139 12.9306C24.4994 13.1814 24.9895 13.1695 25.3623 12.9004C25.7352 12.6312 25.8979 12.1717 25.7771 11.7299L24.8457 8.32584L27.6128 6.11585C27.9721 5.82896 28.1121 5.36222 27.9697 4.92673C27.8274 4.49125 27.4379 4.19538 26.9776 4.1731L23.4316 4.00133L22.1714 0.703531C22.0082 0.27611 21.6048 0 21.1437 0C20.6826 0 20.2791 0.276211 20.1157 0.703632L18.8556 4.00153L15.3096 4.1733C14.8494 4.19558 14.46 4.49135 14.3176 4.92694C14.1751 5.36232 14.3151 5.82906 14.6744 6.11595ZM19.2766 5.59589C19.7135 5.57492 20.0961 5.29881 20.2514 4.89236L21.1435 2.55737L22.0356 4.89216C22.1908 5.29861 22.5734 5.57482 23.01 5.59579L25.5207 5.71736L23.5617 7.28219C23.2209 7.55426 23.0747 8.00094 23.1894 8.4205L23.8488 10.8307L21.7458 9.46284C21.5628 9.34379 21.3532 9.28431 21.1435 9.28431C20.9339 9.28431 20.7242 9.34379 20.5414 9.46284L18.4384 10.8308L19.0978 8.4207C19.2125 8.00134 19.0664 7.55457 18.7257 7.28249L16.7665 5.71777L19.2766 5.59589ZM7.74916 16.1176L10.7194 18.0497C11.105 18.3005 11.595 18.2888 11.9679 18.0195C12.3407 17.7504 12.5035 17.291 12.3826 16.8491L11.4512 13.4449L14.2183 11.2349C14.5775 10.948 14.7175 10.4813 14.5751 10.0458C14.4327 9.61032 14.0432 9.31455 13.5831 9.29228L10.0371 9.1205L8.77705 5.8225C8.61382 5.39518 8.21045 5.11897 7.74936 5.11897C7.28827 5.11897 6.8847 5.39518 6.72137 5.8226L5.46115 9.1206L1.91516 9.29238C1.45488 9.31466 1.06552 9.61042 0.92308 10.046C0.780644 10.4816 0.920747 10.9483 1.27998 11.2351L4.04704 13.4451L3.11572 16.8492C2.9948 17.291 3.15752 17.7504 3.53035 18.0196C3.72432 18.1597 3.94995 18.23 4.17618 18.23C4.38477 18.23 4.59385 18.1701 4.7787 18.0498L7.74916 16.1176ZM3.37199 10.8365L5.88268 10.7149C6.31952 10.6938 6.70199 10.4175 6.85701 10.0114L7.74916 7.67644L8.64142 10.0115C8.79663 10.4177 9.1791 10.6938 9.61574 10.7149L12.1264 10.8365L10.1673 12.4012C9.82646 12.6733 9.68037 13.1201 9.79511 13.5394L10.4545 15.9495L8.35137 14.5814C8.16856 14.4626 7.95896 14.4031 7.74936 14.4031C7.53977 14.4031 7.33007 14.4626 7.14715 14.5815L5.04409 15.9495L5.70352 13.5394C5.81826 13.1199 5.67207 12.673 5.3314 12.4012L3.37199 10.8365ZM27.7119 10.0458C27.5695 10.4813 27.7096 10.9481 28.0687 11.235L30.8359 13.445L29.9046 16.8491C29.7836 17.2909 29.9464 17.7503 30.3192 18.0195C30.5132 18.1595 30.7388 18.2299 30.965 18.2299C31.1736 18.2299 31.3827 18.17 31.5677 18.0497L34.5379 16.1175L37.5082 18.0496C37.8937 18.3004 38.3837 18.2886 38.7565 18.0195C39.1293 17.7505 39.2923 17.291 39.1715 16.849L38.24 13.4449L41.0072 11.2349C41.3664 10.948 41.5063 10.4813 41.364 10.0458C41.2216 9.61032 40.8322 9.31455 40.372 9.29228L36.826 9.1205L35.5659 5.82271C35.4027 5.39518 34.9992 5.11897 34.538 5.11897C34.0768 5.11897 33.6734 5.39518 33.5101 5.8225L32.2499 9.1205L28.704 9.29228C28.2438 9.31455 27.8544 9.61032 27.7119 10.0458ZM32.6714 10.715C33.1083 10.6939 33.4907 10.4177 33.6458 10.0115L34.5379 7.67644L35.4301 10.0112C35.5852 10.4176 35.9677 10.6938 36.4045 10.7149L38.9151 10.8365L36.9559 12.4013C36.6151 12.6734 36.469 13.1202 36.5838 13.5394L37.2432 15.9495L35.14 14.5814C34.9572 14.4626 34.7476 14.4031 34.538 14.4031C34.3284 14.4031 34.1187 14.4626 33.9357 14.5815L31.8327 15.9495L32.4922 13.5394C32.6069 13.12 32.4607 12.6732 32.1201 12.4012L30.1608 10.8364L32.6714 10.715ZM40.2129 30.8119C37.1751 30.8119 34.461 32.2136 32.6898 34.3998C30.6325 32.4072 28.094 30.9904 25.3471 30.2705C28.0614 28.7894 29.9057 25.9219 29.9057 22.6338C29.9057 17.833 25.975 13.9274 21.1436 13.9274C16.3123 13.9274 12.3816 17.833 12.3816 22.6338C12.3816 25.9195 14.2232 28.7851 16.9343 30.2671C14.3963 30.9296 12.037 32.1882 10.0565 33.9679C7.03556 36.6825 5.13418 40.3844 4.70271 44.3915C4.67816 44.6191 4.75212 44.8463 4.90602 45.0164C5.05992 45.1866 5.27935 45.2838 5.50965 45.2838L31.9017 45.2837C33.5849 48.1045 36.68 50 40.2128 50C45.5368 50 49.8682 45.6962 49.8682 40.4059C49.8682 35.1157 45.5369 30.8119 40.2129 30.8119ZM14.0049 22.6338C14.0049 18.7224 17.2074 15.5403 21.1437 15.5403C25.0801 15.5403 28.2826 18.7224 28.2826 22.6338C28.2826 26.5448 25.0808 29.7266 21.1451 29.7272C21.1447 29.7272 21.1441 29.7272 21.1437 29.7272C21.1433 29.7272 21.1428 29.7272 21.1424 29.7272C17.2067 29.7265 14.0049 26.5447 14.0049 22.6338ZM6.44005 43.6709C7.63858 36.5812 13.8066 31.3409 21.1424 31.3402H21.1437H21.145C25.1355 31.3405 28.9725 32.9458 31.7666 35.7623C30.9969 37.1392 30.5576 38.7225 30.5576 40.4061C30.5576 41.5519 30.7611 42.6514 31.1335 43.6709H6.44005ZM40.2129 48.3872C35.784 48.3872 32.1808 44.8068 32.1808 40.406C32.1808 36.0052 35.784 32.4248 40.2129 32.4248C44.6419 32.4248 48.2451 36.0052 48.2451 40.406C48.2451 44.8068 44.6419 48.3872 40.2129 48.3872ZM45.7761 36.288C45.3736 35.8905 44.8372 35.6735 44.2718 35.6747C43.705 35.6769 43.1734 35.8983 42.775 36.2981L39.0487 40.0379L37.6493 38.6473C36.8214 37.8249 35.4744 37.8247 34.6464 38.6474C33.8186 39.47 33.8186 40.8085 34.6464 41.6313L37.5528 44.5192C37.9667 44.9305 38.5104 45.1361 39.0542 45.1361C39.5978 45.1361 40.1416 44.9304 40.5555 44.5191C41.6587 43.4231 42.7713 42.3017 43.8472 41.2172C44.4928 40.5665 45.1385 39.9158 45.7858 39.2666C46.6083 38.442 46.6038 37.1058 45.7761 36.288ZM44.6328 38.1313C43.9846 38.7814 43.338 39.4331 42.6914 40.0848C41.6174 41.1672 40.5068 42.2866 39.4078 43.3786C39.2129 43.5724 38.8955 43.5724 38.7005 43.3786L35.7942 40.4908C35.5992 40.2969 35.5992 39.9816 35.7942 39.7879C35.8917 39.691 36.0198 39.6426 36.1478 39.6426C36.2759 39.6426 36.404 39.691 36.5015 39.7879L38.4775 41.7515C38.6297 41.9027 38.8362 41.9877 39.0514 41.9877H39.0535C39.2694 41.9872 39.4762 41.9012 39.6282 41.7487L43.9284 37.433C44.0213 37.3398 44.1455 37.2882 44.278 37.2877C44.4123 37.2827 44.5368 37.3382 44.6314 37.4317C44.8257 37.6235 44.8263 37.9375 44.6328 38.1313Z" fill="#E61F7F"/>
</svg>
