<svg width="34" height="29" viewBox="0 0 34 29" fill="none" xmlns="http://www.w3.org/2000/svg">
<path d="M26.1594 27.0005C28.105 27.0005 29.6822 25.4234 29.6822 23.4778C29.6822 21.5323 28.105 19.9551 26.1594 19.9551C24.2139 19.9551 22.6367 21.5323 22.6367 23.4778C22.6367 25.4234 24.2139 27.0005 26.1594 27.0005Z" stroke="white" stroke-width="2.81818" stroke-linecap="round" stroke-linejoin="round"/>
<path d="M7.84109 27.0005C9.78663 27.0005 11.3638 25.4234 11.3638 23.4778C11.3638 21.5323 9.78663 19.9551 7.84109 19.9551C5.89554 19.9551 4.31836 21.5323 4.31836 23.4778C4.31836 25.4234 5.89554 27.0005 7.84109 27.0005Z" stroke="white" stroke-width="2.81818" stroke-linecap="round" stroke-linejoin="round"/>
<path d="M22.6367 8.68164H28.2731L32.5004 12.9089V19.9544H22.6367V8.68164Z" stroke="white" stroke-width="2.81818" stroke-linecap="round" stroke-linejoin="round"/>
<path d="M22.6364 1.63672H1.5V19.9549H22.6364V1.63672Z" stroke="white" stroke-width="2.81818" stroke-linecap="round" stroke-linejoin="round"/>
</svg>
