<svg width="30" height="29" viewBox="0 0 30 29" fill="none" xmlns="http://www.w3.org/2000/svg">
<path d="M15.166 28C22.6219 28 28.666 21.9558 28.666 14.5C28.666 7.04416 22.6219 1 15.166 1C7.71017 1 1.66602 7.04416 1.66602 14.5C1.66602 21.9558 7.71017 28 15.166 28Z" stroke="#777335" stroke-width="2" stroke-linecap="round" stroke-linejoin="round"/>
<path d="M15.1656 19.8996C18.148 19.8996 20.5656 17.4819 20.5656 14.4996C20.5656 11.5173 18.148 9.09961 15.1656 9.09961C12.1833 9.09961 9.76562 11.5173 9.76562 14.4996C9.76562 17.4819 12.1833 19.8996 15.1656 19.8996Z" stroke="#777335" stroke-width="2" stroke-linecap="round" stroke-linejoin="round"/>
<path d="M18.9863 18.3203L24.7103 24.0443" stroke="#777335" stroke-width="2" stroke-linecap="round" stroke-linejoin="round"/>
<path d="M5.62109 24.0443L11.3451 18.3203" stroke="#777335" stroke-width="2" stroke-linecap="round" stroke-linejoin="round"/>
<path d="M18.9863 10.6791L24.7103 4.95508" stroke="#777335" stroke-width="2" stroke-linecap="round" stroke-linejoin="round"/>
<path d="M18.9863 10.6796L23.7518 5.91406" stroke="#777335" stroke-width="2" stroke-linecap="round" stroke-linejoin="round"/>
<path d="M5.62109 4.95508L11.3451 10.6791" stroke="#777335" stroke-width="2" stroke-linecap="round" stroke-linejoin="round"/>
</svg>
