<svg width="30" height="29" viewBox="0 0 30 29" fill="none" xmlns="http://www.w3.org/2000/svg">
<path d="M15 28C22.4558 28 28.5 21.9558 28.5 14.5C28.5 7.04416 22.4558 1 15 1C7.54416 1 1.5 7.04416 1.5 14.5C1.5 21.9558 7.54416 28 15 28Z" stroke="white" stroke-width="2" stroke-linecap="round" stroke-linejoin="round"/>
<path d="M14.9996 19.8996C17.9819 19.8996 20.3996 17.4819 20.3996 14.4996C20.3996 11.5173 17.9819 9.09961 14.9996 9.09961C12.0173 9.09961 9.59961 11.5173 9.59961 14.4996C9.59961 17.4819 12.0173 19.8996 14.9996 19.8996Z" stroke="white" stroke-width="2" stroke-linecap="round" stroke-linejoin="round"/>
<path d="M18.8203 18.3203L24.5443 24.0443" stroke="white" stroke-width="2" stroke-linecap="round" stroke-linejoin="round"/>
<path d="M5.45508 24.0443L11.1791 18.3203" stroke="white" stroke-width="2" stroke-linecap="round" stroke-linejoin="round"/>
<path d="M18.8203 10.6791L24.5443 4.95508" stroke="white" stroke-width="2" stroke-linecap="round" stroke-linejoin="round"/>
<path d="M18.8203 10.6796L23.5858 5.91406" stroke="white" stroke-width="2" stroke-linecap="round" stroke-linejoin="round"/>
<path d="M5.45508 4.95508L11.1791 10.6791" stroke="white" stroke-width="2" stroke-linecap="round" stroke-linejoin="round"/>
</svg>
