<svg width="50" height="50" viewBox="0 0 50 50" fill="none" xmlns="http://www.w3.org/2000/svg">
<path d="M18.75 15.6251C18.75 17.3503 19.3604 18.8233 20.5811 20.044C21.8018 21.2647 23.2747 21.8751 25 21.8751C26.7253 21.8751 28.1982 21.2647 29.4189 20.044C30.6396 18.8233 31.25 17.3503 31.25 15.6251C31.25 13.8998 30.6396 12.4268 29.4189 11.2061C28.1982 9.98541 26.7253 9.37506 25 9.37506C23.2747 9.37506 21.8018 9.98541 20.5811 11.2061C19.3604 12.4268 18.75 13.8998 18.75 15.6251ZM25 11.7188C26.0742 11.7188 26.9938 12.1013 27.7588 12.8663C28.5238 13.6312 28.9062 14.5508 28.9062 15.6251C28.9062 16.6993 28.5238 17.6189 27.7588 18.3839C26.9938 19.1488 26.0742 19.5313 25 19.5313C23.9258 19.5313 23.0062 19.1488 22.2412 18.3839C21.4762 17.6189 21.0938 16.6993 21.0938 15.6251C21.0938 14.5508 21.4762 13.6312 22.2412 12.8663C23.0062 12.1013 23.9258 11.7188 25 11.7188ZM10.1562 15.6251V16.5528C10.1562 18.2781 10.4329 19.9626 10.9863 21.6065C11.5397 23.2504 12.3372 24.7559 13.3789 26.1231L25 41.4063L36.6211 26.1231C37.6628 24.7559 38.4603 23.2504 39.0137 21.6065C39.5671 19.9626 39.8438 18.2781 39.8438 16.5528V15.6251C39.8438 13.5743 39.4531 11.6537 38.6719 9.86334C37.8906 8.04042 36.8327 6.46165 35.498 5.12701C34.1634 3.79238 32.5846 2.73444 30.7617 1.95319C28.9714 1.17194 27.0508 0.781311 25 0.781311C22.9492 0.781311 21.0286 1.17194 19.2383 1.95319C17.4154 2.73444 15.8366 3.79238 14.502 5.12701C13.1673 6.46165 12.1094 8.04042 11.3281 9.86334C10.5469 11.6537 10.1562 13.5743 10.1562 15.6251ZM25 3.12506C26.7253 3.12506 28.3529 3.45058 29.8828 4.10162C31.3802 4.75267 32.6986 5.64785 33.8379 6.78717C34.9772 7.92649 35.8724 9.24485 36.5234 10.7422C37.1745 12.2722 37.5 13.8998 37.5 15.6251V16.5528C37.5 18.0176 37.264 19.4499 36.792 20.8497C36.32 22.2494 35.6445 23.5352 34.7656 24.7071L25 37.5001L15.2344 24.7071C14.3555 23.5352 13.68 22.2494 13.208 20.8497C12.736 19.4499 12.5 18.0176 12.5 16.5528V15.6251C12.5 13.8998 12.8255 12.2722 13.4766 10.7422C14.1276 9.24485 15.0228 7.92649 16.1621 6.78717C17.3014 5.64785 18.6198 4.75267 20.1172 4.10162C21.6471 3.45058 23.2747 3.12506 25 3.12506ZM3.125 41.4063C3.125 41.3412 3.15755 41.2273 3.22266 41.0645C3.28776 40.9018 3.43424 40.7064 3.66211 40.4786C3.85742 40.2833 4.12598 40.0635 4.46777 39.8194C4.80957 39.5753 5.22461 39.323 5.71289 39.0626C6.6569 38.5743 7.78809 38.1267 9.10645 37.7198C10.4248 37.3129 11.8815 36.9792 13.4766 36.7188L13.0859 34.3751C11.3932 34.668 9.83073 35.0424 8.39844 35.4981C6.96615 35.9538 5.71289 36.4584 4.63867 37.0118C4.08529 37.2722 3.58073 37.557 3.125 37.8663C2.66927 38.1755 2.27865 38.5092 1.95312 38.8672C1.6276 39.2253 1.35091 39.6159 1.12305 40.0391C0.895182 40.4623 0.78125 40.918 0.78125 41.4063C0.78125 42.155 1.01725 42.8142 1.48926 43.3839C1.96126 43.9535 2.50651 44.4499 3.125 44.8731C3.80859 45.3288 4.59798 45.7439 5.49316 46.1182C6.38835 46.4926 7.37305 46.8425 8.44727 47.168C9.52148 47.461 10.6934 47.7377 11.9629 47.9981C13.2324 48.2585 14.5671 48.4783 15.9668 48.6573C17.3665 48.8363 18.8314 48.9747 20.3613 49.0723C21.8587 49.17 23.4049 49.2188 25 49.2188C26.5951 49.2188 28.1413 49.17 29.6387 49.0723C31.1686 48.9747 32.6335 48.8363 34.0332 48.6573C35.4329 48.4783 36.7676 48.2585 38.0371 47.9981C39.3066 47.7377 40.4785 47.461 41.5527 47.168C42.627 46.8425 43.6117 46.4926 44.5068 46.1182C45.402 45.7439 46.1914 45.3288 46.875 44.8731C47.4935 44.4499 48.0387 43.9535 48.5107 43.3839C48.9827 42.8142 49.2188 42.155 49.2188 41.4063C49.2188 40.918 49.1048 40.4623 48.877 40.0391C48.6491 39.6159 48.3724 39.2253 48.0469 38.8672C47.7214 38.5092 47.3307 38.1755 46.875 37.8663C46.4193 37.557 45.9147 37.2722 45.3613 37.0118C44.2871 36.4584 43.0339 35.9538 41.6016 35.4981C40.1693 35.0424 38.6068 34.668 36.9141 34.3751L36.5234 36.7188C38.1185 36.9792 39.5752 37.3129 40.8936 37.7198C42.2119 38.1267 43.3431 38.5743 44.2871 39.0626C44.7754 39.323 45.1904 39.5753 45.5322 39.8194C45.874 40.0635 46.1426 40.2833 46.3379 40.4786C46.5658 40.7064 46.7122 40.9018 46.7773 41.0645C46.8424 41.2273 46.875 41.3412 46.875 41.4063C46.875 41.5365 46.7936 41.7318 46.6309 41.9922C46.4681 42.2527 46.11 42.5619 45.5566 42.92C45.0358 43.2781 44.3848 43.6199 43.6035 43.9454C42.8223 44.2709 41.9108 44.5801 40.8691 44.8731C39.86 45.1986 38.7533 45.4753 37.5488 45.7032C36.3444 45.9636 35.0667 46.1752 33.7158 46.338C32.3649 46.5007 30.957 46.6309 29.4922 46.7286C28.0273 46.8262 26.5299 46.8751 25 46.8751C23.4701 46.8751 21.9727 46.8262 20.5078 46.7286C19.043 46.6309 17.6351 46.5007 16.2842 46.338C14.9333 46.1752 13.6556 45.9636 12.4512 45.7032C11.2467 45.4753 10.14 45.1986 9.13086 44.8731C8.08919 44.5801 7.17773 44.2709 6.39648 43.9454C5.61523 43.6199 4.96419 43.2781 4.44336 42.92C3.88997 42.5619 3.5319 42.2527 3.36914 41.9922C3.20638 41.7318 3.125 41.5365 3.125 41.4063Z" fill="#E61F7F"/>
</svg>
