<svg width="50" height="50" viewBox="0 0 50 50" fill="none" xmlns="http://www.w3.org/2000/svg">
<path d="M18.75 15.625C18.75 17.3503 19.3604 18.8232 20.5811 20.0439C21.8018 21.2646 23.2747 21.875 25 21.875C26.7253 21.875 28.1982 21.2646 29.4189 20.0439C30.6396 18.8232 31.25 17.3503 31.25 15.625C31.25 13.8997 30.6396 12.4268 29.4189 11.2061C28.1982 9.98535 26.7253 9.375 25 9.375C23.2747 9.375 21.8018 9.98535 20.5811 11.2061C19.3604 12.4268 18.75 13.8997 18.75 15.625ZM25 11.7188C26.0742 11.7188 26.9938 12.1012 27.7588 12.8662C28.5238 13.6312 28.9062 14.5508 28.9062 15.625C28.9062 16.6992 28.5238 17.6188 27.7588 18.3838C26.9938 19.1488 26.0742 19.5312 25 19.5312C23.9258 19.5312 23.0062 19.1488 22.2412 18.3838C21.4762 17.6188 21.0938 16.6992 21.0938 15.625C21.0938 14.5508 21.4762 13.6312 22.2412 12.8662C23.0062 12.1012 23.9258 11.7188 25 11.7188ZM10.1562 15.625V16.5527C10.1562 18.278 10.4329 19.9626 10.9863 21.6064C11.5397 23.2503 12.3372 24.7559 13.3789 26.123L25 41.4062L36.6211 26.123C37.6628 24.7559 38.4603 23.2503 39.0137 21.6064C39.5671 19.9626 39.8438 18.278 39.8438 16.5527V15.625C39.8438 13.5742 39.4531 11.6536 38.6719 9.86328C37.8906 8.04036 36.8327 6.46159 35.498 5.12695C34.1634 3.79232 32.5846 2.73438 30.7617 1.95312C28.9714 1.17188 27.0508 0.78125 25 0.78125C22.9492 0.78125 21.0286 1.17188 19.2383 1.95312C17.4154 2.73438 15.8366 3.79232 14.502 5.12695C13.1673 6.46159 12.1094 8.04036 11.3281 9.86328C10.5469 11.6536 10.1562 13.5742 10.1562 15.625ZM25 3.125C26.7253 3.125 28.3529 3.45052 29.8828 4.10156C31.3802 4.75261 32.6986 5.64779 33.8379 6.78711C34.9772 7.92643 35.8724 9.24479 36.5234 10.7422C37.1745 12.2721 37.5 13.8997 37.5 15.625V16.5527C37.5 18.0176 37.264 19.4499 36.792 20.8496C36.32 22.2493 35.6445 23.5352 34.7656 24.707L25 37.5L15.2344 24.707C14.3555 23.5352 13.68 22.2493 13.208 20.8496C12.736 19.4499 12.5 18.0176 12.5 16.5527V15.625C12.5 13.8997 12.8255 12.2721 13.4766 10.7422C14.1276 9.24479 15.0228 7.92643 16.1621 6.78711C17.3014 5.64779 18.6198 4.75261 20.1172 4.10156C21.6471 3.45052 23.2747 3.125 25 3.125ZM3.125 41.4062C3.125 41.3411 3.15755 41.2272 3.22266 41.0645C3.28776 40.9017 3.43424 40.7064 3.66211 40.4785C3.85742 40.2832 4.12598 40.0635 4.46777 39.8193C4.80957 39.5752 5.22461 39.3229 5.71289 39.0625C6.6569 38.5742 7.78809 38.1266 9.10645 37.7197C10.4248 37.3128 11.8815 36.9792 13.4766 36.7188L13.0859 34.375C11.3932 34.668 9.83073 35.0423 8.39844 35.498C6.96615 35.9538 5.71289 36.4583 4.63867 37.0117C4.08529 37.2721 3.58073 37.557 3.125 37.8662C2.66927 38.1755 2.27865 38.5091 1.95312 38.8672C1.6276 39.2253 1.35091 39.6159 1.12305 40.0391C0.895182 40.4622 0.78125 40.918 0.78125 41.4062C0.78125 42.1549 1.01725 42.8141 1.48926 43.3838C1.96126 43.9535 2.50651 44.4499 3.125 44.873C3.80859 45.3288 4.59798 45.7438 5.49316 46.1182C6.38835 46.4925 7.37305 46.8424 8.44727 47.168C9.52148 47.4609 10.6934 47.7376 11.9629 47.998C13.2324 48.2585 14.5671 48.4782 15.9668 48.6572C17.3665 48.8363 18.8314 48.9746 20.3613 49.0723C21.8587 49.1699 23.4049 49.2188 25 49.2188C26.5951 49.2188 28.1413 49.1699 29.6387 49.0723C31.1686 48.9746 32.6335 48.8363 34.0332 48.6572C35.4329 48.4782 36.7676 48.2585 38.0371 47.998C39.3066 47.7376 40.4785 47.4609 41.5527 47.168C42.627 46.8424 43.6117 46.4925 44.5068 46.1182C45.402 45.7438 46.1914 45.3288 46.875 44.873C47.4935 44.4499 48.0387 43.9535 48.5107 43.3838C48.9827 42.8141 49.2188 42.1549 49.2188 41.4062C49.2188 40.918 49.1048 40.4622 48.877 40.0391C48.6491 39.6159 48.3724 39.2253 48.0469 38.8672C47.7214 38.5091 47.3307 38.1755 46.875 37.8662C46.4193 37.557 45.9147 37.2721 45.3613 37.0117C44.2871 36.4583 43.0339 35.9538 41.6016 35.498C40.1693 35.0423 38.6068 34.668 36.9141 34.375L36.5234 36.7188C38.1185 36.9792 39.5752 37.3128 40.8936 37.7197C42.2119 38.1266 43.3431 38.5742 44.2871 39.0625C44.7754 39.3229 45.1904 39.5752 45.5322 39.8193C45.874 40.0635 46.1426 40.2832 46.3379 40.4785C46.5658 40.7064 46.7122 40.9017 46.7773 41.0645C46.8424 41.2272 46.875 41.3411 46.875 41.4062C46.875 41.5365 46.7936 41.7318 46.6309 41.9922C46.4681 42.2526 46.11 42.5618 45.5566 42.9199C45.0358 43.278 44.3848 43.6198 43.6035 43.9453C42.8223 44.2708 41.9108 44.5801 40.8691 44.873C39.86 45.1986 38.7533 45.4753 37.5488 45.7031C36.3444 45.9635 35.0667 46.1751 33.7158 46.3379C32.3649 46.5007 30.957 46.6309 29.4922 46.7285C28.0273 46.8262 26.5299 46.875 25 46.875C23.4701 46.875 21.9727 46.8262 20.5078 46.7285C19.043 46.6309 17.6351 46.5007 16.2842 46.3379C14.9333 46.1751 13.6556 45.9635 12.4512 45.7031C11.2467 45.4753 10.14 45.1986 9.13086 44.873C8.08919 44.5801 7.17773 44.2708 6.39648 43.9453C5.61523 43.6198 4.96419 43.278 4.44336 42.9199C3.88997 42.5618 3.5319 42.2526 3.36914 41.9922C3.20638 41.7318 3.125 41.5365 3.125 41.4062Z" fill="#777335"/>
</svg>
