<svg width="40" height="50" viewBox="0 0 40 50" fill="none" xmlns="http://www.w3.org/2000/svg">
<path d="M0.46875 0.781311V49.2188H39.5312V12.4024L27.9102 0.781311H0.46875ZM2.8125 46.8751V3.12506H26.25V14.0626H37.1875V46.8751H2.8125ZM35.5273 11.7188H28.5938V4.78522L35.5273 11.7188ZM16.9238 16.4551L15.2637 14.795L11.4062 18.6524L9.89258 17.1387L8.23242 18.7989L11.4062 21.9727L16.9238 16.4551ZM16.9238 25.0489L15.2637 23.3887L11.4062 27.2462L9.89258 25.7325L8.23242 27.3926L11.4062 30.5665L16.9238 25.0489ZM16.9238 34.4239L15.2637 32.7637L11.4062 36.6212L9.89258 35.1075L8.23242 36.7676L11.4062 39.9415L16.9238 34.4239ZM18.4375 21.0938H31.7188V18.7501H18.4375V21.0938ZM18.4375 29.6876H31.7188V27.3438H18.4375V29.6876ZM18.4375 39.0626H31.7188V36.7188H18.4375V39.0626Z" fill="#E61F7F"/>
</svg>
