<svg width="40" height="50" viewBox="0 0 40 50" fill="none" xmlns="http://www.w3.org/2000/svg">
<path d="M0.46875 0.78125V49.2188H39.5312V12.4023L27.9102 0.78125H0.46875ZM2.8125 46.875V3.125H26.25V14.0625H37.1875V46.875H2.8125ZM35.5273 11.7188H28.5938V4.78516L35.5273 11.7188ZM16.9238 16.4551L15.2637 14.7949L11.4062 18.6523L9.89258 17.1387L8.23242 18.7988L11.4062 21.9727L16.9238 16.4551ZM16.9238 25.0488L15.2637 23.3887L11.4062 27.2461L9.89258 25.7324L8.23242 27.3926L11.4062 30.5664L16.9238 25.0488ZM16.9238 34.4238L15.2637 32.7637L11.4062 36.6211L9.89258 35.1074L8.23242 36.7676L11.4062 39.9414L16.9238 34.4238ZM18.4375 21.0938H31.7188V18.75H18.4375V21.0938ZM18.4375 29.6875H31.7188V27.3438H18.4375V29.6875ZM18.4375 39.0625H31.7188V36.7188H18.4375V39.0625Z" fill="#777335"/>
</svg>
