<svg width="23" height="23" viewBox="0 0 23 23" fill="none" xmlns="http://www.w3.org/2000/svg">
<g clip-path="url(#clip0_2024_5802)">
<path d="M22.3755 0.793524C22.8292 1.0943 23.0672 1.61423 22.9819 2.13415L20.1069 20.0091C20.0395 20.4259 19.7745 20.7912 19.3881 20.9974C19.0018 21.2037 18.5391 21.2295 18.1303 21.0662L12.4567 18.8103L10.6553 22.0115C10.4217 22.4283 9.92311 22.6388 9.44245 22.5228C8.96178 22.4068 8.62487 21.9943 8.62487 21.5216V17.3966C8.62487 17.1689 8.70573 16.9455 8.85397 16.765L16.2796 7.62985C16.3919 7.32477 15.9876 7.0154 15.6956 7.26891L7.65456 14.2256L6.21706 15.4674C5.80377 15.824 5.2153 15.9228 4.6987 15.7166L0.880337 14.1955C0.377212 13.9935 0.0358059 13.5381 0.00436057 13.0138C-0.0270847 12.4896 0.251431 11.9955 0.727603 11.7334L20.8526 0.733367C21.3333 0.471258 21.9262 0.497039 22.3799 0.793524H22.3755Z" fill="white"/>
</g>
<defs>
<clipPath id="clip0_2024_5802">
<rect width="23" height="22" fill="white" transform="translate(0 0.552734)"/>
</clipPath>
</defs>
</svg>
