<?xml version="1.0" encoding="UTF-8"?>
<svg id="Layer_1" xmlns="http://www.w3.org/2000/svg" version="1.1" viewBox="0 0 24 24">
  <!-- Generator: Adobe Illustrator 29.4.0, SVG Export Plug-In . SVG Version: 2.1.0 Build 152)  -->
  <defs>
    <style>
      .st0 {
        fill: none;
        stroke: #010f1c;
        stroke-linejoin: round;
        stroke-width: 1.5px;
      }
    </style>
  </defs>
  <path class="st0" d="M-11.1,20c-.3,0-.6-.1-.8-.3l-5.9-5.9s-.1-.1-.3-.3c-.1-.1-.3-.3-.6-.7-.3-.3-.5-.7-.7-1-.2-.4-.4-.8-.6-1.3-.2-.5-.2-1-.2-1.5,0-1.6.5-2.8,1.4-3.7.9-.9,2.1-1.4,3.7-1.4s.9,0,1.4.2c.4.2.9.4,1.3.6.4.2.7.5.9.7.1.1.3.2.4.4.1-.1.3-.2.4-.4.3-.2.6-.5.9-.7.4-.3.8-.5,1.3-.6.5-.2.9-.2,1.4-.2,1.5,0,2.8.5,3.7,1.4.9.9,1.4,2.1,1.4,3.7s-.8,3.2-2.3,4.7l-5.9,5.9c-.2.2-.5.3-.8.3Z"/>
  <path class="st0" d="M35.5,4.2c-.3-.3-.7-.3-.9,0l-6.9,6.8s0,0,0,0c0,0,0,0,0,0v8c0,.3,0,.5.3.7.2.2.4.3.7.3h4.5v-3.9c0-1.1.9-1.9,1.9-1.9h0c1.1,0,1.9.9,1.9,1.9v3.9h4.5c.3,0,.5,0,.7-.3.2-.2.3-.4.3-.7v-8s0,0,0,0l-6.9-6.8Z"/>
  <g>
    <circle class="st0" cx="11" cy="11.4" r="7.4"/>
    <line class="st0" x1="16.5" y1="16.4" x2="20.4" y2="20.3"/>
  </g>
</svg>