<?xml version="1.0" encoding="UTF-8"?>
<svg id="Layer_1" xmlns="http://www.w3.org/2000/svg" version="1.1" viewBox="0 0 24 24">
  <!-- Generator: Adobe Illustrator 29.4.0, SVG Export Plug-In . SVG Version: 2.1.0 Build 152)  -->
  <defs>
    <style>
      .st0 {
        fill: #0c0c0c;
      }

      .st1 {
        fill: none;
        stroke: #010f1c;
        stroke-linejoin: round;
        stroke-width: 1.5px;
      }
    </style>
  </defs>
  <path class="st1" d="M-11.1,20c-.3,0-.6-.1-.8-.3l-5.9-5.9s-.1-.1-.3-.3c-.1-.1-.3-.3-.6-.7-.3-.3-.5-.7-.7-1-.2-.4-.4-.8-.6-1.3-.2-.5-.2-1-.2-1.5,0-1.6.5-2.8,1.4-3.7.9-.9,2.1-1.4,3.7-1.4s.9,0,1.4.2c.4.2.9.4,1.3.6.4.2.7.5.9.7.1.1.3.2.4.4.1-.1.3-.2.4-.4.3-.2.6-.5.9-.7.4-.3.8-.5,1.3-.6.5-.2.9-.2,1.4-.2,1.5,0,2.8.5,3.7,1.4.9.9,1.4,2.1,1.4,3.7s-.8,3.2-2.3,4.7l-5.9,5.9c-.2.2-.5.3-.8.3Z"/>
  <path class="st1" d="M35.5,4.2c-.3-.3-.7-.3-.9,0l-6.9,6.8s0,0,0,0c0,0,0,0,0,0v8c0,.3,0,.5.3.7.2.2.4.3.7.3h4.5v-3.9c0-1.1.9-1.9,1.9-1.9h0c1.1,0,1.9.9,1.9,1.9v3.9h4.5c.3,0,.5,0,.7-.3.2-.2.3-.4.3-.7v-8s0,0,0,0l-6.9-6.8Z"/>
  <g>
    <circle class="st1" cx="55.6" cy="11.4" r="7.4"/>
    <line class="st1" x1="61" y1="16.4" x2="64.9" y2="20.3"/>
  </g>
  <path class="st0" d="M8.7,3.3c.1,0,.2,0,.3,0,2.1,0,4.3,0,6.4,0s4.1-.5,4.8,1.8.5,1.8.7,2.6c.2,1.2,0,2.1-.7,3v7.1c-.1,1.2-1,2.4-2.1,2.7s-2.3.1-3.3.1c-1.8,0-3.7,0-5.5,0s-2.5.1-3.3-.2-2-1.5-2.1-2.8v-7c-.7-.8-1-1.8-.8-2.9s.5-2.1.7-2.9,1.1-1.7,2-1.8,2,0,2.9,0ZM8.2,4.6h-2.3s-.3.1-.3.2c-.3.2-.4.4-.5.7-.2.6-.7,2.3-.7,2.9-.2,2,2.2,3,3.5,1.5s.5-.8.5-1v-4.3ZM14.6,4.6h-5.1v4.3c0,.5.7,1.3,1.1,1.5s2,.3,2.6,0,1.3-1,1.3-1.7v-4.2ZM15.8,4.6v4.3c0,.3.3.8.5,1,1.2,1.5,3.6.5,3.5-1.5s-.6-2.8-.8-3.2-.5-.6-.8-.6h-2.3ZM5.1,11.6v6.2c0,.6.9,1.6,1.5,1.6h2.2v-3.4c0-1.5,1.7-2.9,3.2-2.8s3.1,1.3,3.1,2.8v3.4h2.2c.6,0,1.5-1,1.5-1.6v-6.2c-1.3.5-2.9,0-3.7-1.1-.5.5-1,.9-1.6,1.2s-2.3.3-3,0-1.2-.6-1.6-1.2c-.8,1.2-2.4,1.6-3.7,1.1ZM13.9,19.5v-3.4c0-.9-1.1-1.7-1.9-1.7s-1.9.8-1.9,1.7v3.4h3.8Z"/>
</svg>