<svg width="32" height="32" viewBox="0 0 32 32" fill="none" xmlns="http://www.w3.org/2000/svg">
<path d="M3.45899 25.2195L15.459 30.5528H15.467C15.6347 30.6283 15.8164 30.6674 16.0003 30.6674C16.1842 30.6674 16.366 30.6283 16.5337 30.5528H16.5443L28.5443 25.2195C28.7796 25.1144 28.9793 24.9433 29.1194 24.727C29.2595 24.5107 29.3339 24.2585 29.3337 24.0008V8.00082C29.3273 7.7443 29.2499 7.49456 29.1101 7.27941C28.9703 7.06425 28.7735 6.89212 28.5417 6.78215L16.5417 1.44882C16.3712 1.37311 16.1868 1.33398 16.0003 1.33398C15.8138 1.33398 15.6294 1.37311 15.459 1.44882L3.45899 6.78215C3.22724 6.89224 3.03054 7.06441 2.89073 7.27954C2.75092 7.49466 2.67347 7.74433 2.66699 8.00082V24.0008C2.66696 24.2588 2.74177 24.5112 2.88234 24.7276C3.02292 24.9439 3.22323 25.1147 3.45899 25.2195ZM5.33366 10.0528L14.667 14.2008V27.2822L5.33366 23.1342V10.0528ZM26.667 23.1342L17.3337 27.2822V14.2008L26.667 10.0528V23.1342ZM16.0003 4.12615L24.7177 8.00082L16.0003 11.8755L7.28299 8.00082L16.0003 4.12615Z" fill="#57437B"/>
</svg>
