<svg width="22" height="20" viewBox="0 0 22 20" fill="none" xmlns="http://www.w3.org/2000/svg">
<path d="M20.0181 12.8347L19.7727 13.5434H19.7727L20.0181 12.8347ZM20.0181 7.1634L20.2635 7.87212V7.87212L20.0181 7.1634ZM1.98189 12.8347L2.22727 13.5434H2.22727L1.98189 12.8347ZM1.98189 7.1634L1.73652 7.87212L1.73652 7.87212L1.98189 7.1634ZM14.5303 7.52935C14.8232 7.23646 14.8232 6.76159 14.5303 6.46869C14.2374 6.1758 13.7626 6.1758 13.4697 6.46869L14.5303 7.52935ZM7.46967 12.4687C7.17678 12.7616 7.17678 13.2365 7.46967 13.5294C7.76256 13.8222 8.23744 13.8222 8.53033 13.5294L7.46967 12.4687ZM5 18.249C3.20507 18.249 1.75 16.7939 1.75 14.999H0.25C0.25 17.6224 2.37665 19.749 5 19.749V18.249ZM20.25 14.999C20.25 16.7939 18.7949 18.249 17 18.249V19.749C19.6234 19.749 21.75 17.6224 21.75 14.999H20.25ZM17 1.74902C18.7949 1.74902 20.25 3.2041 20.25 4.99902H21.75C21.75 2.37567 19.6234 0.249023 17 0.249023V1.74902ZM5 0.249023C2.37665 0.249023 0.25 2.37567 0.25 4.99902H1.75C1.75 3.2041 3.20507 1.74902 5 1.74902V0.249023ZM20.2635 12.1259C19.3815 11.8206 18.75 10.9826 18.75 9.99902H17.25C17.25 11.6414 18.3054 13.0354 19.7727 13.5434L20.2635 12.1259ZM18.75 9.99902C18.75 9.01546 19.3815 8.17746 20.2635 7.87212L19.7727 6.45467C18.3054 6.96269 17.25 8.35664 17.25 9.99902H18.75ZM3.25 9.99902C3.25 10.9826 2.61845 11.8206 1.73652 12.1259L2.22727 13.5434C3.69461 13.0354 4.75 11.6414 4.75 9.99902H3.25ZM1.73652 7.87212C2.61845 8.17746 3.25 9.01546 3.25 9.99902H4.75C4.75 8.35664 3.69462 6.96269 2.22727 6.45467L1.73652 7.87212ZM21.75 5.99902V4.99902H20.25V5.99902H21.75ZM20.25 13.999V14.999H21.75V13.999H20.25ZM0.25 13.999V14.999H1.75V13.999H0.25ZM1.75 5.99902V4.99902H0.25V5.99902H1.75ZM17 18.249H5V19.749H17V18.249ZM17 0.249023H5V1.74902H17V0.249023ZM1.73652 12.1259C1.05785 12.3609 0.25 12.9966 0.25 13.999H1.75C1.75 13.9432 1.77081 13.8699 1.85172 13.7803C1.9366 13.6864 2.06974 13.5979 2.22727 13.5434L1.73652 12.1259ZM20.2635 7.87212C20.9422 7.63715 21.75 7.00148 21.75 5.99902H20.25C20.25 6.05489 20.2292 6.12819 20.1483 6.21774C20.0634 6.31168 19.9303 6.40013 19.7727 6.45467L20.2635 7.87212ZM2.22727 6.45467C2.06974 6.40013 1.9366 6.31168 1.85172 6.21774C1.77081 6.12819 1.75 6.05489 1.75 5.99902H0.25C0.25 7.00148 1.05785 7.63715 1.73652 7.87212L2.22727 6.45467ZM19.7727 13.5434C19.9303 13.5979 20.0634 13.6864 20.1483 13.7803C20.2292 13.8699 20.25 13.9432 20.25 13.999H21.75C21.75 12.9966 20.9422 12.3609 20.2635 12.1259L19.7727 13.5434ZM8.25 6.99902C8.25 7.13709 8.13807 7.24902 8 7.24902V8.74902C8.9665 8.74902 9.75 7.96552 9.75 6.99902H8.25ZM8 7.24902C7.86193 7.24902 7.75 7.13709 7.75 6.99902H6.25C6.25 7.96552 7.0335 8.74902 8 8.74902V7.24902ZM7.75 6.99902C7.75 6.86095 7.86193 6.74902 8 6.74902V5.24902C7.0335 5.24902 6.25 6.03253 6.25 6.99902H7.75ZM8 6.74902C8.13807 6.74902 8.25 6.86095 8.25 6.99902H9.75C9.75 6.03253 8.9665 5.24902 8 5.24902V6.74902ZM14.25 12.999C14.25 13.1371 14.1381 13.249 14 13.249V14.749C14.9665 14.749 15.75 13.9655 15.75 12.999H14.25ZM14 13.249C13.8619 13.249 13.75 13.1371 13.75 12.999H12.25C12.25 13.9655 13.0335 14.749 14 14.749V13.249ZM13.75 12.999C13.75 12.861 13.8619 12.749 14 12.749V11.249C13.0335 11.249 12.25 12.0325 12.25 12.999H13.75ZM14 12.749C14.1381 12.749 14.25 12.861 14.25 12.999H15.75C15.75 12.0325 14.9665 11.249 14 11.249V12.749ZM13.4697 6.46869L7.46967 12.4687L8.53033 13.5294L14.5303 7.52935L13.4697 6.46869Z" fill="#141718"/>
</svg>
