<svg width="50" height="50" viewBox="0 0 50 50" fill="none" xmlns="http://www.w3.org/2000/svg">
<path d="M25 6.10352e-05C21.5495 6.10352e-05 18.3105 0.651104 15.2832 1.95319C12.2233 3.25527 9.56217 5.03749 7.2998 7.29987C5.03744 9.56224 3.25521 12.2234 1.95312 15.2833C0.651042 18.3106 0 21.5495 0 25.0001C0 28.4506 0.651042 31.6895 1.95312 34.7169C3.25521 37.7768 5.03744 40.4379 7.2998 42.7003C9.56217 44.9626 12.2233 46.7449 15.2832 48.0469C18.3105 49.349 21.5495 50.0001 25 50.0001C28.4505 50.0001 31.6895 49.349 34.7168 48.0469C37.7767 46.7449 40.4378 44.9626 42.7002 42.7003C44.9626 40.4379 46.7448 37.7768 48.0469 34.7169C49.349 31.6895 50 28.4506 50 25.0001C50 21.5495 49.349 18.3106 48.0469 15.2833C46.7448 12.2234 44.9626 9.56224 42.7002 7.29987C40.4378 5.03749 37.7767 3.25527 34.7168 1.95319C31.6895 0.651104 28.4505 6.10352e-05 25 6.10352e-05ZM37.5 43.8965C35.7096 45.101 33.7565 46.0287 31.6406 46.6797C29.5247 47.3308 27.3112 47.6563 25 47.6563C22.6888 47.6563 20.4753 47.3308 18.3594 46.6797C16.2435 46.0287 14.2904 45.101 12.5 43.8965V42.9688C12.5 41.3087 12.8418 39.7136 13.5254 38.1837C14.1764 36.6863 15.0798 35.3598 16.2354 34.2042C17.391 33.0486 18.7174 32.1452 20.2148 31.4942C21.7448 30.8106 23.3398 30.4688 25 30.4688C26.6602 30.4688 28.2552 30.8106 29.7852 31.4942C31.2826 32.1452 32.6091 33.0486 33.7646 34.2042C34.9202 35.3598 35.8236 36.6863 36.4746 38.1837C37.1582 39.7136 37.5 41.3087 37.5 42.9688V43.8965ZM39.7949 42.1387C39.7298 40.5762 39.4043 39.0788 38.8184 37.6465C38.2324 36.2468 37.4674 34.961 36.5234 33.7891C35.5794 32.6172 34.4727 31.5919 33.2031 30.713C31.9336 29.834 30.5664 29.183 29.1016 28.7598C30.6641 27.9786 31.9336 26.8393 32.9102 25.3419C33.8867 23.8445 34.375 22.168 34.375 20.3126C34.375 17.7084 33.4635 15.4949 31.6406 13.6719C29.8177 11.849 27.6042 10.9376 25 10.9376C22.3958 10.9376 20.1823 11.849 18.3594 13.6719C16.5365 15.4949 15.625 17.7084 15.625 20.3126C15.625 22.168 16.1133 23.8445 17.0898 25.3419C18.0664 26.8393 19.3359 27.9786 20.8984 28.7598C19.4336 29.183 18.0664 29.834 16.7969 30.713C15.5273 31.5919 14.4206 32.6172 13.4766 33.7891C12.5326 34.961 11.7676 36.2468 11.1816 37.6465C10.5957 39.0788 10.2702 40.5762 10.2051 42.1387C9.00065 41.0971 7.91016 39.9415 6.93359 38.6719C5.95703 37.4024 5.13509 36.0352 4.46777 34.5704C3.80046 33.1055 3.27148 31.5756 2.88086 29.9805C2.52279 28.3855 2.34375 26.7253 2.34375 25.0001C2.34375 21.8751 2.92969 18.9291 4.10156 16.1622C5.30599 13.4278 6.93359 11.0352 8.98438 8.98444C11.0352 6.93365 13.4277 5.30605 16.1621 4.10162C18.929 2.92975 21.875 2.34381 25 2.34381C28.125 2.34381 31.071 2.92975 33.8379 4.10162C36.5723 5.30605 38.9648 6.93365 41.0156 8.98444C43.0664 11.0352 44.694 13.4278 45.8984 16.1622C47.0703 18.9291 47.6562 21.8751 47.6562 25.0001C47.6562 26.7253 47.4772 28.3855 47.1191 29.9805C46.7285 31.5756 46.1995 33.1055 45.5322 34.5704C44.8649 36.0352 44.043 37.4024 43.0664 38.6719C42.0898 39.9415 40.9993 41.0971 39.7949 42.1387ZM25 13.2813C26.9531 13.2813 28.6133 13.9649 29.9805 15.3321C31.3477 16.6993 32.0312 18.3594 32.0312 20.3126C32.0312 22.2657 31.3477 23.9258 29.9805 25.293C28.6133 26.6602 26.9531 27.3438 25 27.3438C23.0469 27.3438 21.3867 26.6602 20.0195 25.293C18.6523 23.9258 17.9688 22.2657 17.9688 20.3126C17.9688 18.3594 18.6523 16.6993 20.0195 15.3321C21.3867 13.9649 23.0469 13.2813 25 13.2813Z" fill="#E61F7F"/>
</svg>
