<svg width="50" height="50" viewBox="0 0 50 50" fill="none" xmlns="http://www.w3.org/2000/svg">
<path d="M25 0C21.5495 0 18.3105 0.651043 15.2832 1.95312C12.2233 3.25521 9.56217 5.03743 7.2998 7.2998C5.03744 9.56218 3.25521 12.2233 1.95312 15.2832C0.651042 18.3105 0 21.5495 0 25C0 28.4505 0.651042 31.6895 1.95312 34.7168C3.25521 37.7767 5.03744 40.4378 7.2998 42.7002C9.56217 44.9626 12.2233 46.7448 15.2832 48.0469C18.3105 49.349 21.5495 50 25 50C28.4505 50 31.6895 49.349 34.7168 48.0469C37.7767 46.7448 40.4378 44.9626 42.7002 42.7002C44.9626 40.4378 46.7448 37.7767 48.0469 34.7168C49.349 31.6895 50 28.4505 50 25C50 21.5495 49.349 18.3105 48.0469 15.2832C46.7448 12.2233 44.9626 9.56218 42.7002 7.2998C40.4378 5.03743 37.7767 3.25521 34.7168 1.95312C31.6895 0.651043 28.4505 0 25 0ZM37.5 43.8965C35.7096 45.1009 33.7565 46.0286 31.6406 46.6797C29.5247 47.3307 27.3112 47.6562 25 47.6562C22.6888 47.6562 20.4753 47.3307 18.3594 46.6797C16.2435 46.0286 14.2904 45.1009 12.5 43.8965V42.9688C12.5 41.3086 12.8418 39.7135 13.5254 38.1836C14.1764 36.6862 15.0798 35.3597 16.2354 34.2041C17.391 33.0485 18.7174 32.1452 20.2148 31.4941C21.7448 30.8105 23.3398 30.4688 25 30.4688C26.6602 30.4688 28.2552 30.8105 29.7852 31.4941C31.2826 32.1452 32.6091 33.0485 33.7646 34.2041C34.9202 35.3597 35.8236 36.6862 36.4746 38.1836C37.1582 39.7135 37.5 41.3086 37.5 42.9688V43.8965ZM39.7949 42.1387C39.7298 40.5762 39.4043 39.0788 38.8184 37.6465C38.2324 36.2467 37.4674 34.9609 36.5234 33.7891C35.5794 32.6172 34.4727 31.5918 33.2031 30.7129C31.9336 29.834 30.5664 29.1829 29.1016 28.7598C30.6641 27.9785 31.9336 26.8392 32.9102 25.3418C33.8867 23.8444 34.375 22.168 34.375 20.3125C34.375 17.7083 33.4635 15.4948 31.6406 13.6719C29.8177 11.849 27.6042 10.9375 25 10.9375C22.3958 10.9375 20.1823 11.849 18.3594 13.6719C16.5365 15.4948 15.625 17.7083 15.625 20.3125C15.625 22.168 16.1133 23.8444 17.0898 25.3418C18.0664 26.8392 19.3359 27.9785 20.8984 28.7598C19.4336 29.1829 18.0664 29.834 16.7969 30.7129C15.5273 31.5918 14.4206 32.6172 13.4766 33.7891C12.5326 34.9609 11.7676 36.2467 11.1816 37.6465C10.5957 39.0788 10.2702 40.5762 10.2051 42.1387C9.00065 41.097 7.91016 39.9414 6.93359 38.6719C5.95703 37.4023 5.13509 36.0352 4.46777 34.5703C3.80046 33.1055 3.27148 31.5755 2.88086 29.9805C2.52279 28.3854 2.34375 26.7253 2.34375 25C2.34375 21.875 2.92969 18.929 4.10156 16.1621C5.30599 13.4277 6.93359 11.0352 8.98438 8.98438C11.0352 6.93359 13.4277 5.30599 16.1621 4.10156C18.929 2.92969 21.875 2.34375 25 2.34375C28.125 2.34375 31.071 2.92969 33.8379 4.10156C36.5723 5.30599 38.9648 6.93359 41.0156 8.98438C43.0664 11.0352 44.694 13.4277 45.8984 16.1621C47.0703 18.929 47.6562 21.875 47.6562 25C47.6562 26.7253 47.4772 28.3854 47.1191 29.9805C46.7285 31.5755 46.1995 33.1055 45.5322 34.5703C44.8649 36.0352 44.043 37.4023 43.0664 38.6719C42.0898 39.9414 40.9993 41.097 39.7949 42.1387ZM25 13.2812C26.9531 13.2812 28.6133 13.9648 29.9805 15.332C31.3477 16.6992 32.0312 18.3594 32.0312 20.3125C32.0312 22.2656 31.3477 23.9258 29.9805 25.293C28.6133 26.6602 26.9531 27.3438 25 27.3438C23.0469 27.3438 21.3867 26.6602 20.0195 25.293C18.6523 23.9258 17.9688 22.2656 17.9688 20.3125C17.9688 18.3594 18.6523 16.6992 20.0195 15.332C21.3867 13.9648 23.0469 13.2812 25 13.2812Z" fill="#777335"/>
</svg>
