<svg width="32" height="20" viewBox="0 0 32 20" fill="none" xmlns="http://www.w3.org/2000/svg">
<path d="M30 0.619141H2C1.17139 0.619141 0.5 1.29102 0.5 2.11914V5.88867C0.5 6.7168 1.17139 7.38867 2 7.38867C3.43896 7.38867 4.60986 8.55957 4.60986 9.99902C4.60986 11.4385 3.43896 12.6094 2 12.6094C1.17139 12.6094 0.5 13.2812 0.5 14.1094V17.8789C0.5 18.707 1.17139 19.3789 2 19.3789H30C30.8286 19.3789 31.5 18.707 31.5 17.8789V14.1094C31.5 13.2812 30.8286 12.6094 30 12.6094C28.561 12.6094 27.3901 11.4385 27.3901 9.99902C27.3901 8.55957 28.561 7.38867 30 7.38867C30.8286 7.38867 31.5 6.71679 31.5 5.88867V2.11914C31.5 1.29101 30.8286 0.619141 30 0.619141ZM28.5 4.59277C26.1328 5.25 24.3901 7.4248 24.3901 9.99902C24.3901 12.5732 26.1328 14.748 28.5 15.4053V16.3789H3.5V15.4053C5.86719 14.748 7.60986 12.5732 7.60986 9.99902C7.60986 7.4248 5.86719 5.25 3.5 4.59277V3.61914H28.5V4.59277Z" fill="#57437B"/>
<path d="M21 14.9961C21.8286 14.9961 22.5 14.3242 22.5 13.4961V6.50586C22.5 5.67773 21.8286 5.00586 21 5.00586C20.1714 5.00586 19.5 5.67774 19.5 6.50586V13.4961C19.5 14.3242 20.1714 14.9961 21 14.9961Z" fill="#57437B"/>
</svg>
