<svg width="46" height="50" viewBox="0 0 46 50" fill="none" xmlns="http://www.w3.org/2000/svg">
<path d="M32.1576 21.0938V18.75H8.71908V21.0938H32.1576ZM34.1108 30.4688V36.9141L37.5777 39.6973L36.1128 41.5527L31.7669 38.0859V30.4688H34.1108ZM0.90625 0.78125V49.2188H28.593C29.2766 49.4792 29.9765 49.6745 30.6926 49.8047C31.4088 49.9349 32.1576 50 32.9388 50C34.6642 50 36.2918 49.6745 37.8219 49.0234C39.3193 48.3724 40.6377 47.4772 41.7771 46.3379C42.9165 45.1986 43.8117 43.8802 44.4628 42.3828C45.1138 40.8529 45.4394 39.2253 45.4394 37.5C45.4394 35.3516 44.9429 33.374 43.95 31.5674C42.9572 29.7607 41.6306 28.2878 39.9704 27.1484V12.4023L28.3488 0.78125H0.90625ZM37.6265 14.0625V25.9277C36.9104 25.6348 36.1535 25.4069 35.3559 25.2441C34.5584 25.0814 33.7527 25 32.9388 25C31.5716 25 30.2695 25.2035 29.0324 25.6104C27.7954 26.0173 26.6723 26.5951 25.6631 27.3438H8.71908V29.6875H23.1728C22.4892 30.5664 21.9114 31.5348 21.4393 32.5928C20.9673 33.6507 20.6662 34.7656 20.536 35.9375H8.71908V38.2812H20.4383C20.5685 39.974 21.008 41.5609 21.7567 43.042C22.5055 44.5231 23.4821 45.8008 24.6865 46.875H3.2501V3.125H26.6886V14.0625H37.6265ZM29.0324 46.875C27.2094 46.0938 25.712 44.8649 24.54 43.1885C23.3681 41.512 22.7822 39.6159 22.7822 37.5C22.7822 36.1003 23.0426 34.7819 23.5634 33.5449C24.1169 32.3079 24.8493 31.2337 25.7608 30.3223C26.6723 29.4108 27.7466 28.6784 28.9836 28.125C30.2206 27.6042 31.539 27.3438 32.9388 27.3438C34.3386 27.3438 35.657 27.6042 36.8941 28.125C38.1311 28.6784 39.2054 29.4108 40.1169 30.3223C41.0284 31.2337 41.7608 32.3079 42.3142 33.5449C42.8351 34.7819 43.0955 36.1003 43.0955 37.5C43.0955 38.8997 42.8351 40.2181 42.3142 41.4551C41.7608 42.6921 41.0284 43.7663 40.1169 44.6777C39.2054 45.5892 38.1311 46.3216 36.8941 46.875C35.657 47.3958 34.3386 47.6562 32.9388 47.6562C32.2552 47.6562 31.5797 47.5911 30.9124 47.4609C30.245 47.3307 29.6184 47.1354 29.0324 46.875ZM29.0324 4.78516L35.9663 11.7188H29.0324V4.78516Z" fill="#57437B"/>
</svg>
