<svg width="46" height="50" viewBox="0 0 46 50" fill="none" xmlns="http://www.w3.org/2000/svg">
<path d="M32.1576 21.0938V18.7501H8.71908V21.0938H32.1576ZM34.1108 30.4688V36.9141L37.5777 39.6973L36.1128 41.5528L31.7669 38.086V30.4688H34.1108ZM0.90625 0.781311V49.2188H28.593C29.2766 49.4792 29.9765 49.6745 30.6926 49.8047C31.4088 49.935 32.1576 50.0001 32.9388 50.0001C34.6642 50.0001 36.2918 49.6745 37.8219 49.0235C39.3193 48.3725 40.6377 47.4773 41.7771 46.338C42.9165 45.1986 43.8117 43.8803 44.4628 42.3829C45.1138 40.8529 45.4394 39.2253 45.4394 37.5001C45.4394 35.3516 44.9429 33.3741 43.95 31.5674C42.9572 29.7608 41.6306 28.2878 39.9704 27.1485V12.4024L28.3488 0.781311H0.90625ZM37.6265 14.0626V25.9278C36.9104 25.6348 36.1535 25.407 35.3559 25.2442C34.5584 25.0814 33.7527 25.0001 32.9388 25.0001C31.5716 25.0001 30.2695 25.2035 29.0324 25.6104C27.7954 26.0173 26.6723 26.5951 25.6631 27.3438H8.71908V29.6876H23.1728C22.4892 30.5665 21.9114 31.5349 21.4393 32.5928C20.9673 33.6508 20.6662 34.7657 20.536 35.9376H8.71908V38.2813H20.4383C20.5685 39.974 21.008 41.5609 21.7567 43.0421C22.5055 44.5232 23.4821 45.8008 24.6865 46.8751H3.2501V3.12506H26.6886V14.0626H37.6265ZM29.0324 46.8751C27.2094 46.0938 25.712 44.865 24.54 43.1885C23.3681 41.5121 22.7822 39.6159 22.7822 37.5001C22.7822 36.1003 23.0426 34.782 23.5634 33.545C24.1169 32.308 24.8493 31.2338 25.7608 30.3223C26.6723 29.4109 27.7466 28.6784 28.9836 28.1251C30.2206 27.6042 31.539 27.3438 32.9388 27.3438C34.3386 27.3438 35.6571 27.6042 36.8941 28.1251C38.1311 28.6784 39.2054 29.4109 40.1169 30.3223C41.0284 31.2338 41.7608 32.308 42.3142 33.545C42.8351 34.782 43.0955 36.1003 43.0955 37.5001C43.0955 38.8998 42.8351 40.2182 42.3142 41.4551C41.7608 42.6921 41.0284 43.7663 40.1169 44.6778C39.2054 45.5893 38.1311 46.3217 36.8941 46.8751C35.6571 47.3959 34.3386 47.6563 32.9388 47.6563C32.2552 47.6563 31.5797 47.5912 30.9124 47.461C30.245 47.3308 29.6184 47.1355 29.0324 46.8751ZM29.0324 4.78522L35.9663 11.7188H29.0324V4.78522Z" fill="#E61F7F"/>
</svg>
