<svg width="25" height="25" viewBox="0 0 25 25" fill="none" xmlns="http://www.w3.org/2000/svg">
<g clip-path="url(#clip0_127_6960)">
<path d="M15.2031 18.375H18.25V7.625H2.75V18.375H10.25V22.125L15.2031 18.375ZM11.5 19.625V17.125H4V8.875H17V17.125H14.7969L11.5 19.625Z" fill="#A5A5A5"/>
</g>
<rect x="10.5" y="0.875" width="14" height="14" rx="7" fill="#E61F7F"/>
<path d="M19.3253 10.1145C19.4123 10.1145 19.4813 10.14 19.5323 10.191C19.5833 10.242 19.6088 10.308 19.6088 10.389V10.875H15.3068V10.6005C15.3068 10.5435 15.3188 10.485 15.3428 10.425C15.3668 10.365 15.4043 10.3095 15.4553 10.2585L17.5208 8.184C17.6918 8.01 17.8478 7.8435 17.9888 7.6845C18.1298 7.5225 18.2498 7.3605 18.3488 7.1985C18.4478 7.0365 18.5243 6.873 18.5783 6.708C18.6323 6.54 18.6593 6.3615 18.6593 6.1725C18.6593 5.9835 18.6293 5.8185 18.5693 5.6775C18.5093 5.5335 18.4268 5.415 18.3218 5.322C18.2198 5.229 18.0983 5.16 17.9573 5.115C17.8163 5.067 17.6648 5.043 17.5028 5.043C17.3378 5.043 17.1863 5.067 17.0483 5.115C16.9103 5.163 16.7873 5.2305 16.6793 5.3175C16.5743 5.4015 16.4858 5.502 16.4138 5.619C16.3418 5.736 16.2908 5.865 16.2608 6.006C16.2248 6.111 16.1753 6.1815 16.1123 6.2175C16.0523 6.2505 15.9668 6.2595 15.8558 6.2445L15.4373 6.1725C15.4793 5.8785 15.5603 5.619 15.6803 5.394C15.8033 5.166 15.9563 4.9755 16.1393 4.8225C16.3253 4.6695 16.5368 4.554 16.7738 4.476C17.0108 4.395 17.2673 4.3545 17.5433 4.3545C17.8163 4.3545 18.0713 4.395 18.3083 4.476C18.5453 4.557 18.7508 4.6755 18.9248 4.8315C19.0988 4.9845 19.2353 5.172 19.3343 5.394C19.4333 5.616 19.4828 5.868 19.4828 6.15C19.4828 6.39 19.4468 6.6135 19.3748 6.8205C19.3028 7.0245 19.2053 7.2195 19.0823 7.4055C18.9593 7.5915 18.8168 7.773 18.6548 7.95C18.4958 8.127 18.3263 8.3055 18.1463 8.4855L16.4453 10.2225C16.5653 10.1895 16.6868 10.164 16.8098 10.146C16.9328 10.125 17.0513 10.1145 17.1653 10.1145H19.3253Z" fill="white"/>
<defs>
<clipPath id="clip0_127_6960">
<rect width="16" height="16" fill="white" transform="matrix(1 0 0 -1 2.5 22.875)"/>
</clipPath>
</defs>
</svg>
