<svg width="102" height="36" viewBox="0 0 102 36" fill="none" xmlns="http://www.w3.org/2000/svg">
<path d="M12.84 1.24C6.52 1.24 2.44 6.32 2.44 14.2C2.44 22.08 7.12 27.16 13.68 27.16C18.68 27.16 22.92 24 24.12 19.6L24.24 19.72C23.16 24.04 18.84 27.64 13.24 27.64C5.52 27.64 0.2 21.96 0.2 14.2C0.2 6.44 5.52 0.759999 12.96 0.759999C16.16 0.759999 19.96 2 19.96 4.16C19.96 4.76 19.44 5.28 18.84 5.28C18.24 5.28 17.72 4.76 17.72 4.16C17.72 2.48 15.76 1.24 12.84 1.24ZM57.0697 8.44C53.0697 8.44 51.0297 12.04 49.1897 16.84C47.2297 21.96 45.7497 27.64 42.9497 27.64C40.1897 27.64 40.0297 25 40.0297 23.72V19.04C39.5097 16.8 37.5497 14.12 33.7097 14.12C30.1097 14.12 27.6297 16.64 27.6297 20.64C27.6297 24.64 30.1097 27.16 33.3097 27.16C35.7897 27.16 37.3897 26.04 38.3497 25.04L38.4297 25.16C37.1897 26.6 35.0297 27.64 33.0297 27.64C29.2297 27.64 25.6297 25.04 25.6297 20.64C25.6297 16.24 29.0697 13.64 33.2697 13.64C36.7497 13.64 38.8697 15.08 40.0297 16.52V14.16C40.0297 10.84 38.3497 8.44 35.1497 8.44C33.0697 8.44 32.2697 9.36 32.2697 10.56C32.2697 11.12 31.8297 11.56 31.2697 11.56C30.7097 11.56 30.2697 11.12 30.2697 10.56C30.2697 9 32.8697 7.96 35.0297 7.96C39.2297 7.96 41.8697 10.56 41.8697 14.16V24.16C41.8697 25.8 42.1497 27.08 43.2297 27.08C45.2297 27.08 46.9097 21.64 48.8697 16.36C50.5097 11.96 52.7497 7.96 57.3497 7.96C59.5897 7.96 61.8697 9 61.8697 10.56C61.8697 11.12 61.4297 11.56 60.8697 11.56C60.3097 11.56 59.8697 11.12 59.8697 10.56C59.8697 9.36 59.1497 8.44 57.0697 8.44ZM47.1497 26.88C48.2297 26.44 48.4297 25.56 48.4297 23.72V21.2C48.4297 20.68 48.4697 20.12 48.6697 19.6L49.8697 16.36C49.9897 16 50.2697 16.04 50.2697 16.48V23.72C50.2697 25.56 50.4697 26.44 51.5497 26.88L51.4697 27H47.2297L47.1497 26.88ZM47.1497 9.4L47.2297 9.28L50.1497 8.52L50.2697 8.6V11.4C50.2697 11.84 50.2297 12.12 50.0297 12.52C49.6297 13.32 49.1097 14.4 48.7497 15.4C48.6297 15.72 48.4297 15.72 48.4297 15.44V12.56C48.4297 10.72 48.0297 9.76 47.1497 9.4ZM65.7566 11.88C65.7566 10.04 65.7566 9.08 64.0766 9.08V8.6C66.1566 8.6 67.1166 7.28 67.1166 5.2H67.5966V8.6H72.5966V9.08H67.5966V21.44C67.5966 24.76 68.3166 27.16 71.2766 27.16C72.9566 27.16 73.9966 26.56 74.9166 25.44L74.9966 25.56C74.1166 26.8 72.7966 27.64 70.9966 27.64C67.4366 27.64 65.7566 25.04 65.7566 21.44V11.88ZM77.2203 2.2L77.3003 2.08L80.2203 1.32L80.3403 1.4V23.72C80.3403 25.56 80.5403 26.44 81.6203 26.88L81.5403 27H77.3003L77.2203 26.88C78.3003 26.44 78.5003 25.56 78.5003 23.72V5.36C78.5003 3.52 78.1003 2.56 77.2203 2.2ZM85.9881 11.88C85.1881 10.08 84.5081 9.16 83.4281 8.72L83.5081 8.6H87.8681L87.9881 8.72C86.9081 9.16 87.1881 10.08 87.9881 11.88L93.6681 24.64L98.9481 11.88C99.7081 10.04 99.8681 9.16 98.7881 8.72L98.8681 8.6H101.748L101.828 8.72C100.748 9.16 100.188 10.04 99.4281 11.88L91.7481 30.44C90.2681 34.04 89.1481 35.64 86.9881 35.64C86.0281 35.64 84.6281 35 84.6281 33.84C84.6281 33.28 85.0681 32.84 85.6281 32.84C86.1881 32.84 86.6281 33.28 86.6281 33.84C86.6281 35.04 87.0681 35.16 87.3881 35.16C89.1481 35.16 90.3481 32.72 91.4681 29.96L92.6681 27L85.9881 11.88Z" fill="#E61F7F"/>
</svg>
