<svg width="203" height="44" viewBox="0 0 203 44" fill="none" xmlns="http://www.w3.org/2000/svg">
<path d="M21.144 0.784973C11.288 0.784973 4.504 8.91298 4.504 21.521C4.504 34.129 11.288 42.257 21.784 42.257C37.72 42.257 40.6 25.489 50.328 25.489C51.608 25.489 52.952 25.809 54.232 26.513L45.464 5.96898C45.144 5.20097 44.824 4.49697 44.504 3.98497L35.416 27.665C34.456 30.097 34.392 31.313 35.992 31.953L35.864 32.145H31.192L31.064 31.953C32.664 31.313 33.624 30.097 34.648 27.473L44.056 3.08897C43.416 2.19297 42.776 1.61697 41.816 1.23298L41.944 1.04097H46.936L62.424 37.201C63.576 39.889 64.6 41.169 66.264 41.809L66.136 42.001H58.712L58.584 41.809C60.184 41.169 59.928 39.825 58.84 37.265L54.744 27.665C53.336 26.705 51.992 26.257 50.648 26.257C41.24 26.257 38.232 43.025 21.784 43.025C9.432 43.025 0.92 33.937 0.92 21.521C0.92 9.10498 9.432 0.0169754 21.336 0.0169754C26.456 0.0169754 32.536 2.00098 32.536 5.45697C32.536 6.41697 31.704 7.24897 30.744 7.24897C29.784 7.24897 28.952 6.41697 28.952 5.45697C28.952 2.76897 25.816 0.784973 21.144 0.784973ZM70.465 1.23298L70.593 1.04097H83.521C96.449 1.04097 103.745 6.22498 103.745 14.225C103.745 22.225 97.089 27.409 88.001 27.409C87.297 27.409 86.529 27.345 85.825 27.281L95.873 37.777C97.985 40.017 101.377 42.833 103.041 42.833L102.913 43.025C96.513 43.025 93.377 40.081 91.201 37.777L80.833 26.961C79.681 25.745 77.249 23.889 75.841 21.137V36.753C75.841 39.697 76.161 41.105 77.889 41.809L77.761 42.001H70.593L70.465 41.809C72.193 41.105 72.513 39.697 72.513 36.753V6.28897C72.513 3.34497 72.193 1.93697 70.465 1.23298ZM75.841 17.489C76.481 23.825 82.753 26.641 88.001 26.641C94.913 26.641 100.161 21.777 100.161 14.225C100.161 6.67297 94.273 1.80898 83.521 1.80898H75.841V17.489ZM118.71 41.809C120.438 41.105 120.758 39.697 120.758 36.753V1.80898H113.078C108.918 1.80898 107.19 3.66497 106.102 6.41697L105.398 6.28897L107.318 1.04097H137.526L139.446 6.28897L138.742 6.41697C137.654 3.66497 135.926 1.80898 131.766 1.80898H124.086V36.753C124.086 39.697 124.406 41.105 126.134 41.809L126.006 42.001H118.838L118.71 41.809ZM142.965 41.809C144.693 41.105 145.013 39.697 145.013 36.753V6.28897C145.013 3.34497 144.693 1.93697 142.965 1.23298L143.093 1.04097H150.261L150.389 1.23298C148.661 1.93697 148.341 3.34497 148.341 6.28897V41.233H166.261C170.421 41.233 172.149 39.377 173.237 36.625L173.941 36.753L172.021 42.001H143.093L142.965 41.809ZM171.762 5.84098C170.226 3.47297 168.562 1.87297 166.898 1.23298L167.026 1.04097H174.834L174.962 1.23298C173.362 1.87297 174.194 3.40897 175.73 5.77697L186.61 22.801L196.978 5.77697C198.45 3.34497 199.282 1.87297 197.682 1.23298L197.81 1.04097H202.546L202.674 1.23298C201.01 1.87297 199.346 3.40897 197.874 5.84098L186.866 23.953V36.753C186.866 39.697 187.186 41.105 188.914 41.809L188.786 42.001H181.618L181.49 41.809C183.218 41.105 183.538 39.697 183.538 36.753V24.145L171.762 5.84098Z" fill="#57437B"/>
</svg>
