<svg width="105" height="61" viewBox="0 0 105 61" fill="none" xmlns="http://www.w3.org/2000/svg">
<path d="M13.84 14.3181C7.52 14.3181 3.44 19.3981 3.44 27.2781C3.44 35.1581 8.12 40.2381 14.68 40.2381C19.68 40.2381 23.92 37.0781 25.12 32.6781L25.24 32.7981C24.16 37.1181 19.84 40.7181 14.24 40.7181C6.52 40.7181 1.2 35.0381 1.2 27.2781C1.2 19.5181 6.52 13.8381 13.96 13.8381C17.16 13.8381 20.96 15.0781 20.96 17.2381C20.96 17.8381 20.44 18.3581 19.84 18.3581C19.24 18.3581 18.72 17.8381 18.72 17.2381C18.72 15.5581 16.76 14.3181 13.84 14.3181ZM58.0697 21.5181C54.0697 21.5181 52.0297 25.1181 50.1897 29.9181C48.2297 35.0381 46.7497 40.7181 43.9497 40.7181C41.1897 40.7181 41.0297 38.0781 41.0297 36.7981V32.1181C40.5097 29.8781 38.5497 27.1981 34.7097 27.1981C31.1097 27.1981 28.6297 29.7181 28.6297 33.7181C28.6297 37.7181 31.1097 40.2381 34.3097 40.2381C36.7897 40.2381 38.3897 39.1181 39.3497 38.1181L39.4297 38.2381C38.1897 39.6781 36.0297 40.7181 34.0297 40.7181C30.2297 40.7181 26.6297 38.1181 26.6297 33.7181C26.6297 29.3181 30.0697 26.7181 34.2697 26.7181C37.7497 26.7181 39.8697 28.1581 41.0297 29.5981V27.2381C41.0297 23.9181 39.3497 21.5181 36.1497 21.5181C34.0697 21.5181 33.2697 22.4381 33.2697 23.6381C33.2697 24.1981 32.8297 24.6381 32.2697 24.6381C31.7097 24.6381 31.2697 24.1981 31.2697 23.6381C31.2697 22.0781 33.8697 21.0381 36.0297 21.0381C40.2297 21.0381 42.8697 23.6381 42.8697 27.2381V37.2381C42.8697 38.8781 43.1497 40.1581 44.2297 40.1581C46.2297 40.1581 47.9097 34.7181 49.8697 29.4381C51.5097 25.0381 53.7497 21.0381 58.3497 21.0381C60.5897 21.0381 62.8697 22.0781 62.8697 23.6381C62.8697 24.1981 62.4297 24.6381 61.8697 24.6381C61.3097 24.6381 60.8697 24.1981 60.8697 23.6381C60.8697 22.4381 60.1497 21.5181 58.0697 21.5181ZM48.1497 39.9581C49.2297 39.5181 49.4297 38.6381 49.4297 36.7981V34.2781C49.4297 33.7581 49.4697 33.1981 49.6697 32.6781L50.8697 29.4381C50.9897 29.0781 51.2697 29.1181 51.2697 29.5581V36.7981C51.2697 38.6381 51.4697 39.5181 52.5497 39.9581L52.4697 40.0781H48.2297L48.1497 39.9581ZM48.1497 22.4781L48.2297 22.3581L51.1497 21.5981L51.2697 21.6781V24.4781C51.2697 24.9181 51.2297 25.1981 51.0297 25.5981C50.6297 26.3981 50.1097 27.4781 49.7497 28.4781C49.6297 28.7981 49.4297 28.7981 49.4297 28.5181V25.6381C49.4297 23.7981 49.0297 22.8381 48.1497 22.4781ZM66.7566 24.9581C66.7566 23.1181 66.7566 22.1581 65.0766 22.1581V21.6781C67.1566 21.6781 68.1166 20.3581 68.1166 18.2781H68.5966V21.6781H73.5966V22.1581H68.5966V34.5181C68.5966 37.8381 69.3166 40.2381 72.2766 40.2381C73.9566 40.2381 74.9966 39.6381 75.9166 38.5181L75.9966 38.6381C75.1166 39.8781 73.7966 40.7181 71.9966 40.7181C68.4366 40.7181 66.7566 38.1181 66.7566 34.5181V24.9581ZM78.2203 15.2781L78.3003 15.1581L81.2203 14.3981L81.3403 14.4781V36.7981C81.3403 38.6381 81.5403 39.5181 82.6203 39.9581L82.5403 40.0781H78.3003L78.2203 39.9581C79.3003 39.5181 79.5003 38.6381 79.5003 36.7981V18.4381C79.5003 16.5981 79.1003 15.6381 78.2203 15.2781ZM86.9881 24.9581C86.1881 23.1581 85.5081 22.2381 84.4281 21.7981L84.5081 21.6781H88.8681L88.9881 21.7981C87.9081 22.2381 88.1881 23.1581 88.9881 24.9581L94.6681 37.7181L99.9481 24.9581C100.708 23.1181 100.868 22.2381 99.7881 21.7981L99.8681 21.6781H102.748L102.828 21.7981C101.748 22.2381 101.188 23.1181 100.428 24.9581L92.7481 43.5181C91.2681 47.1181 90.1481 48.7181 87.9881 48.7181C87.0281 48.7181 85.6281 48.0781 85.6281 46.9181C85.6281 46.3581 86.0681 45.9181 86.6281 45.9181C87.1881 45.9181 87.6281 46.3581 87.6281 46.9181C87.6281 48.1181 88.0681 48.2381 88.3881 48.2381C90.1481 48.2381 91.3481 45.7981 92.4681 43.0381L93.6681 40.0781L86.9881 24.9581Z" fill="#339994"/>
</svg>
