<svg width="203" height="44" viewBox="0 0 203 44" fill="none" xmlns="http://www.w3.org/2000/svg">
<path d="M21.144 1.47931C11.288 1.47931 4.504 9.60731 4.504 22.2153C4.504 34.8233 11.288 42.9513 21.784 42.9513C37.72 42.9513 40.6 26.1833 50.328 26.1833C51.608 26.1833 52.952 26.5033 54.232 27.2073L45.464 6.66331C45.144 5.89531 44.824 5.19131 44.504 4.67931L35.416 28.3593C34.456 30.7913 34.392 32.0073 35.992 32.6473L35.864 32.8393H31.192L31.064 32.6473C32.664 32.0073 33.624 30.7913 34.648 28.1673L44.056 3.78331C43.416 2.88731 42.776 2.31131 41.816 1.92731L41.944 1.73531H46.936L62.424 37.8953C63.576 40.5833 64.6 41.8633 66.264 42.5033L66.136 42.6953H58.712L58.584 42.5033C60.184 41.8633 59.928 40.5193 58.84 37.9593L54.744 28.3593C53.336 27.3993 51.992 26.9513 50.648 26.9513C41.24 26.9513 38.232 43.7193 21.784 43.7193C9.432 43.7193 0.92 34.6313 0.92 22.2153C0.92 9.79931 9.432 0.711311 21.336 0.711311C26.456 0.711311 32.536 2.69531 32.536 6.15131C32.536 7.11131 31.704 7.94331 30.744 7.94331C29.784 7.94331 28.952 7.11131 28.952 6.15131C28.952 3.46331 25.816 1.47931 21.144 1.47931ZM70.465 1.92731L70.593 1.73531H83.521C96.449 1.73531 103.745 6.91931 103.745 14.9193C103.745 22.9193 97.089 28.1033 88.001 28.1033C87.297 28.1033 86.529 28.0393 85.825 27.9753L95.873 38.4713C97.985 40.7113 101.377 43.5273 103.041 43.5273L102.913 43.7193C96.513 43.7193 93.377 40.7753 91.201 38.4713L80.833 27.6553C79.681 26.4393 77.249 24.5833 75.841 21.8313V37.4473C75.841 40.3913 76.161 41.7993 77.889 42.5033L77.761 42.6953H70.593L70.465 42.5033C72.193 41.7993 72.513 40.3913 72.513 37.4473V6.98331C72.513 4.03931 72.193 2.63131 70.465 1.92731ZM75.841 18.1833C76.481 24.5193 82.753 27.3353 88.001 27.3353C94.913 27.3353 100.161 22.4713 100.161 14.9193C100.161 7.36731 94.273 2.50331 83.521 2.50331H75.841V18.1833ZM118.71 42.5033C120.438 41.7993 120.758 40.3913 120.758 37.4473V2.50331H113.078C108.918 2.50331 107.19 4.35931 106.102 7.11131L105.398 6.98331L107.318 1.73531H137.526L139.446 6.98331L138.742 7.11131C137.654 4.35931 135.926 2.50331 131.766 2.50331H124.086V37.4473C124.086 40.3913 124.406 41.7993 126.134 42.5033L126.006 42.6953H118.838L118.71 42.5033ZM142.965 42.5033C144.693 41.7993 145.013 40.3913 145.013 37.4473V6.98331C145.013 4.03931 144.693 2.63131 142.965 1.92731L143.093 1.73531H150.261L150.389 1.92731C148.661 2.63131 148.341 4.03931 148.341 6.98331V41.9273H166.261C170.421 41.9273 172.149 40.0713 173.237 37.3193L173.941 37.4473L172.021 42.6953H143.093L142.965 42.5033ZM171.762 6.53531C170.226 4.16731 168.562 2.56731 166.898 1.92731L167.026 1.73531H174.834L174.962 1.92731C173.362 2.56731 174.194 4.10331 175.73 6.47131L186.61 23.4953L196.978 6.47131C198.45 4.03931 199.282 2.56731 197.682 1.92731L197.81 1.73531H202.546L202.674 1.92731C201.01 2.56731 199.346 4.10331 197.874 6.53531L186.866 24.6473V37.4473C186.866 40.3913 187.186 41.7993 188.914 42.5033L188.786 42.6953H181.618L181.49 42.5033C183.218 41.7993 183.538 40.3913 183.538 37.4473V24.8393L171.762 6.53531Z" fill="#BD844C"/>
</svg>
