<svg width="203" height="44" viewBox="0 0 203 44" fill="none" xmlns="http://www.w3.org/2000/svg">
<path d="M21.144 0.78009C11.288 0.78009 4.504 8.90809 4.504 21.5161C4.504 34.1241 11.288 42.2521 21.784 42.2521C37.72 42.2521 40.6 25.4841 50.328 25.4841C51.608 25.4841 52.952 25.8041 54.232 26.5081L45.464 5.96409C45.144 5.19609 44.824 4.49209 44.504 3.98009L35.416 27.6601C34.456 30.0921 34.392 31.3081 35.992 31.9481L35.864 32.1401H31.192L31.064 31.9481C32.664 31.3081 33.624 30.0921 34.648 27.4681L44.056 3.08409C43.416 2.18809 42.776 1.61209 41.816 1.22809L41.944 1.03609H46.936L62.424 37.1961C63.576 39.8841 64.6 41.1641 66.264 41.8041L66.136 41.9961H58.712L58.584 41.8041C60.184 41.1641 59.928 39.8201 58.84 37.2601L54.744 27.6601C53.336 26.7001 51.992 26.2521 50.648 26.2521C41.24 26.2521 38.232 43.0201 21.784 43.0201C9.432 43.0201 0.92 33.9321 0.92 21.5161C0.92 9.10009 9.432 0.0120926 21.336 0.0120926C26.456 0.0120926 32.536 1.99609 32.536 5.45209C32.536 6.41209 31.704 7.24409 30.744 7.24409C29.784 7.24409 28.952 6.41209 28.952 5.45209C28.952 2.76409 25.816 0.78009 21.144 0.78009ZM70.465 1.22809L70.593 1.03609H83.521C96.449 1.03609 103.745 6.22009 103.745 14.2201C103.745 22.2201 97.089 27.4041 88.001 27.4041C87.297 27.4041 86.529 27.3401 85.825 27.2761L95.873 37.7721C97.985 40.0121 101.377 42.8281 103.041 42.8281L102.913 43.0201C96.513 43.0201 93.377 40.0761 91.201 37.7721L80.833 26.9561C79.681 25.7401 77.249 23.8841 75.841 21.1321V36.7481C75.841 39.6921 76.161 41.1001 77.889 41.8041L77.761 41.9961H70.593L70.465 41.8041C72.193 41.1001 72.513 39.6921 72.513 36.7481V6.28409C72.513 3.34009 72.193 1.93209 70.465 1.22809ZM75.841 17.4841C76.481 23.8201 82.753 26.6361 88.001 26.6361C94.913 26.6361 100.161 21.7721 100.161 14.2201C100.161 6.66809 94.273 1.80409 83.521 1.80409H75.841V17.4841ZM118.71 41.8041C120.438 41.1001 120.758 39.6921 120.758 36.7481V1.80409H113.078C108.918 1.80409 107.19 3.66009 106.102 6.41209L105.398 6.28409L107.318 1.03609H137.526L139.446 6.28409L138.742 6.41209C137.654 3.66009 135.926 1.80409 131.766 1.80409H124.086V36.7481C124.086 39.6921 124.406 41.1001 126.134 41.8041L126.006 41.9961H118.838L118.71 41.8041ZM142.965 41.8041C144.693 41.1001 145.013 39.6921 145.013 36.7481V6.28409C145.013 3.34009 144.693 1.93209 142.965 1.22809L143.093 1.03609H150.261L150.389 1.22809C148.661 1.93209 148.341 3.34009 148.341 6.28409V41.2281H166.261C170.421 41.2281 172.149 39.3721 173.237 36.6201L173.941 36.7481L172.021 41.9961H143.093L142.965 41.8041ZM171.762 5.83609C170.226 3.46809 168.562 1.86809 166.898 1.22809L167.026 1.03609H174.834L174.962 1.22809C173.362 1.86809 174.194 3.40409 175.73 5.77209L186.61 22.7961L196.978 5.77209C198.45 3.34009 199.282 1.86809 197.682 1.22809L197.81 1.03609H202.546L202.674 1.22809C201.01 1.86809 199.346 3.40409 197.874 5.83609L186.866 23.9481V36.7481C186.866 39.6921 187.186 41.1001 188.914 41.8041L188.786 41.9961H181.618L181.49 41.8041C183.218 41.1001 183.538 39.6921 183.538 36.7481V24.1401L171.762 5.83609Z" fill="#339994"/>
</svg>
