<svg width="203" height="44" viewBox="0 0 203 44" fill="none" xmlns="http://www.w3.org/2000/svg">
<path d="M21.144 0.783997C11.288 0.783997 4.504 8.912 4.504 21.52C4.504 34.128 11.288 42.256 21.784 42.256C37.72 42.256 40.6 25.488 50.328 25.488C51.608 25.488 52.952 25.808 54.232 26.512L45.464 5.968C45.144 5.2 44.824 4.496 44.504 3.984L35.416 27.664C34.456 30.096 34.392 31.312 35.992 31.952L35.864 32.144H31.192L31.064 31.952C32.664 31.312 33.624 30.096 34.648 27.472L44.056 3.088C43.416 2.192 42.776 1.616 41.816 1.232L41.944 1.04H46.936L62.424 37.2C63.576 39.888 64.6 41.168 66.264 41.808L66.136 42H58.712L58.584 41.808C60.184 41.168 59.928 39.824 58.84 37.264L54.744 27.664C53.336 26.704 51.992 26.256 50.648 26.256C41.24 26.256 38.232 43.024 21.784 43.024C9.432 43.024 0.92 33.936 0.92 21.52C0.92 9.104 9.432 0.0159988 21.336 0.0159988C26.456 0.0159988 32.536 2 32.536 5.456C32.536 6.416 31.704 7.248 30.744 7.248C29.784 7.248 28.952 6.416 28.952 5.456C28.952 2.768 25.816 0.783997 21.144 0.783997ZM70.465 1.232L70.593 1.04H83.521C96.449 1.04 103.745 6.224 103.745 14.224C103.745 22.224 97.089 27.408 88.001 27.408C87.297 27.408 86.529 27.344 85.825 27.28L95.873 37.776C97.985 40.016 101.377 42.832 103.041 42.832L102.913 43.024C96.513 43.024 93.377 40.08 91.201 37.776L80.833 26.96C79.681 25.744 77.249 23.888 75.841 21.136V36.752C75.841 39.696 76.161 41.104 77.889 41.808L77.761 42H70.593L70.465 41.808C72.193 41.104 72.513 39.696 72.513 36.752V6.288C72.513 3.344 72.193 1.936 70.465 1.232ZM75.841 17.488C76.481 23.824 82.753 26.64 88.001 26.64C94.913 26.64 100.161 21.776 100.161 14.224C100.161 6.672 94.273 1.808 83.521 1.808H75.841V17.488ZM118.71 41.808C120.438 41.104 120.758 39.696 120.758 36.752V1.808H113.078C108.918 1.808 107.19 3.664 106.102 6.416L105.398 6.288L107.318 1.04H137.526L139.446 6.288L138.742 6.416C137.654 3.664 135.926 1.808 131.766 1.808H124.086V36.752C124.086 39.696 124.406 41.104 126.134 41.808L126.006 42H118.838L118.71 41.808ZM142.965 41.808C144.693 41.104 145.013 39.696 145.013 36.752V6.288C145.013 3.344 144.693 1.936 142.965 1.232L143.093 1.04H150.261L150.389 1.232C148.661 1.936 148.341 3.344 148.341 6.288V41.232H166.261C170.421 41.232 172.149 39.376 173.237 36.624L173.941 36.752L172.021 42H143.093L142.965 41.808ZM171.762 5.84C170.226 3.472 168.562 1.872 166.898 1.232L167.026 1.04H174.834L174.962 1.232C173.362 1.872 174.194 3.408 175.73 5.776L186.61 22.8L196.978 5.776C198.45 3.344 199.282 1.872 197.682 1.232L197.81 1.04H202.546L202.674 1.232C201.01 1.872 199.346 3.408 197.874 5.84L186.866 23.952V36.752C186.866 39.696 187.186 41.104 188.914 41.808L188.786 42H181.618L181.49 41.808C183.218 41.104 183.538 39.696 183.538 36.752V24.144L171.762 5.84Z" fill="#BD844C"/>
</svg>
