<svg width="105" height="60" viewBox="0 0 105 60" fill="none" xmlns="http://www.w3.org/2000/svg">
<path d="M13.84 14.24C7.52 14.24 3.44 19.32 3.44 27.2C3.44 35.08 8.12 40.16 14.68 40.16C19.68 40.16 23.92 37 25.12 32.6L25.24 32.72C24.16 37.04 19.84 40.64 14.24 40.64C6.52 40.64 1.2 34.96 1.2 27.2C1.2 19.44 6.52 13.76 13.96 13.76C17.16 13.76 20.96 15 20.96 17.16C20.96 17.76 20.44 18.28 19.84 18.28C19.24 18.28 18.72 17.76 18.72 17.16C18.72 15.48 16.76 14.24 13.84 14.24ZM58.0697 21.44C54.0697 21.44 52.0297 25.04 50.1897 29.84C48.2297 34.96 46.7497 40.64 43.9497 40.64C41.1897 40.64 41.0297 38 41.0297 36.72V32.04C40.5097 29.8 38.5497 27.12 34.7097 27.12C31.1097 27.12 28.6297 29.64 28.6297 33.64C28.6297 37.64 31.1097 40.16 34.3097 40.16C36.7897 40.16 38.3897 39.04 39.3497 38.04L39.4297 38.16C38.1897 39.6 36.0297 40.64 34.0297 40.64C30.2297 40.64 26.6297 38.04 26.6297 33.64C26.6297 29.24 30.0697 26.64 34.2697 26.64C37.7497 26.64 39.8697 28.08 41.0297 29.52V27.16C41.0297 23.84 39.3497 21.44 36.1497 21.44C34.0697 21.44 33.2697 22.36 33.2697 23.56C33.2697 24.12 32.8297 24.56 32.2697 24.56C31.7097 24.56 31.2697 24.12 31.2697 23.56C31.2697 22 33.8697 20.96 36.0297 20.96C40.2297 20.96 42.8697 23.56 42.8697 27.16V37.16C42.8697 38.8 43.1497 40.08 44.2297 40.08C46.2297 40.08 47.9097 34.64 49.8697 29.36C51.5097 24.96 53.7497 20.96 58.3497 20.96C60.5897 20.96 62.8697 22 62.8697 23.56C62.8697 24.12 62.4297 24.56 61.8697 24.56C61.3097 24.56 60.8697 24.12 60.8697 23.56C60.8697 22.36 60.1497 21.44 58.0697 21.44ZM48.1497 39.88C49.2297 39.44 49.4297 38.56 49.4297 36.72V34.2C49.4297 33.68 49.4697 33.12 49.6697 32.6L50.8697 29.36C50.9897 29 51.2697 29.04 51.2697 29.48V36.72C51.2697 38.56 51.4697 39.44 52.5497 39.88L52.4697 40H48.2297L48.1497 39.88ZM48.1497 22.4L48.2297 22.28L51.1497 21.52L51.2697 21.6V24.4C51.2697 24.84 51.2297 25.12 51.0297 25.52C50.6297 26.32 50.1097 27.4 49.7497 28.4C49.6297 28.72 49.4297 28.72 49.4297 28.44V25.56C49.4297 23.72 49.0297 22.76 48.1497 22.4ZM66.7566 24.88C66.7566 23.04 66.7566 22.08 65.0766 22.08V21.6C67.1566 21.6 68.1166 20.28 68.1166 18.2H68.5966V21.6H73.5966V22.08H68.5966V34.44C68.5966 37.76 69.3166 40.16 72.2766 40.16C73.9566 40.16 74.9966 39.56 75.9166 38.44L75.9966 38.56C75.1166 39.8 73.7966 40.64 71.9966 40.64C68.4366 40.64 66.7566 38.04 66.7566 34.44V24.88ZM78.2203 15.2L78.3003 15.08L81.2203 14.32L81.3403 14.4V36.72C81.3403 38.56 81.5403 39.44 82.6203 39.88L82.5403 40H78.3003L78.2203 39.88C79.3003 39.44 79.5003 38.56 79.5003 36.72V18.36C79.5003 16.52 79.1003 15.56 78.2203 15.2ZM86.9881 24.88C86.1881 23.08 85.5081 22.16 84.4281 21.72L84.5081 21.6H88.8681L88.9881 21.72C87.9081 22.16 88.1881 23.08 88.9881 24.88L94.6681 37.64L99.9481 24.88C100.708 23.04 100.868 22.16 99.7881 21.72L99.8681 21.6H102.748L102.828 21.72C101.748 22.16 101.188 23.04 100.428 24.88L92.7481 43.44C91.2681 47.04 90.1481 48.64 87.9881 48.64C87.0281 48.64 85.6281 48 85.6281 46.84C85.6281 46.28 86.0681 45.84 86.6281 45.84C87.1881 45.84 87.6281 46.28 87.6281 46.84C87.6281 48.04 88.0681 48.16 88.3881 48.16C90.1481 48.16 91.3481 45.72 92.4681 42.96L93.6681 40L86.9881 24.88Z" fill="#BD844C"/>
</svg>
