<svg width="102" height="36" viewBox="0 0 102 36" fill="none" xmlns="http://www.w3.org/2000/svg">
<path d="M12.84 1.24879C6.52 1.24879 2.44 6.32879 2.44 14.2088C2.44 22.0888 7.12 27.1688 13.68 27.1688C18.68 27.1688 22.92 24.0088 24.12 19.6088L24.24 19.7288C23.16 24.0488 18.84 27.6488 13.24 27.6488C5.52 27.6488 0.2 21.9688 0.2 14.2088C0.2 6.44879 5.52 0.768788 12.96 0.768788C16.16 0.768788 19.96 2.00879 19.96 4.16879C19.96 4.76879 19.44 5.28879 18.84 5.28879C18.24 5.28879 17.72 4.76879 17.72 4.16879C17.72 2.48879 15.76 1.24879 12.84 1.24879ZM57.0697 8.44879C53.0697 8.44879 51.0297 12.0488 49.1897 16.8488C47.2297 21.9688 45.7497 27.6488 42.9497 27.6488C40.1897 27.6488 40.0297 25.0088 40.0297 23.7288V19.0488C39.5097 16.8088 37.5497 14.1288 33.7097 14.1288C30.1097 14.1288 27.6297 16.6488 27.6297 20.6488C27.6297 24.6488 30.1097 27.1688 33.3097 27.1688C35.7897 27.1688 37.3897 26.0488 38.3497 25.0488L38.4297 25.1688C37.1897 26.6088 35.0297 27.6488 33.0297 27.6488C29.2297 27.6488 25.6297 25.0488 25.6297 20.6488C25.6297 16.2488 29.0697 13.6488 33.2697 13.6488C36.7497 13.6488 38.8697 15.0888 40.0297 16.5288V14.1688C40.0297 10.8488 38.3497 8.44879 35.1497 8.44879C33.0697 8.44879 32.2697 9.36879 32.2697 10.5688C32.2697 11.1288 31.8297 11.5688 31.2697 11.5688C30.7097 11.5688 30.2697 11.1288 30.2697 10.5688C30.2697 9.00879 32.8697 7.96879 35.0297 7.96879C39.2297 7.96879 41.8697 10.5688 41.8697 14.1688V24.1688C41.8697 25.8088 42.1497 27.0888 43.2297 27.0888C45.2297 27.0888 46.9097 21.6488 48.8697 16.3688C50.5097 11.9688 52.7497 7.96879 57.3497 7.96879C59.5897 7.96879 61.8697 9.00879 61.8697 10.5688C61.8697 11.1288 61.4297 11.5688 60.8697 11.5688C60.3097 11.5688 59.8697 11.1288 59.8697 10.5688C59.8697 9.36879 59.1497 8.44879 57.0697 8.44879ZM47.1497 26.8888C48.2297 26.4488 48.4297 25.5688 48.4297 23.7288V21.2088C48.4297 20.6888 48.4697 20.1288 48.6697 19.6088L49.8697 16.3688C49.9897 16.0088 50.2697 16.0488 50.2697 16.4888V23.7288C50.2697 25.5688 50.4697 26.4488 51.5497 26.8888L51.4697 27.0088H47.2297L47.1497 26.8888ZM47.1497 9.40879L47.2297 9.28879L50.1497 8.52879L50.2697 8.60879V11.4088C50.2697 11.8488 50.2297 12.1288 50.0297 12.5288C49.6297 13.3288 49.1097 14.4088 48.7497 15.4088C48.6297 15.7288 48.4297 15.7288 48.4297 15.4488V12.5688C48.4297 10.7288 48.0297 9.76879 47.1497 9.40879ZM65.7566 11.8888C65.7566 10.0488 65.7566 9.08879 64.0766 9.08879V8.60879C66.1566 8.60879 67.1166 7.28879 67.1166 5.20879H67.5966V8.60879H72.5966V9.08879H67.5966V21.4488C67.5966 24.7688 68.3166 27.1688 71.2766 27.1688C72.9566 27.1688 73.9966 26.5688 74.9166 25.4488L74.9966 25.5688C74.1166 26.8088 72.7966 27.6488 70.9966 27.6488C67.4366 27.6488 65.7566 25.0488 65.7566 21.4488V11.8888ZM77.2203 2.20879L77.3003 2.08879L80.2203 1.32879L80.3403 1.40879V23.7288C80.3403 25.5688 80.5403 26.4488 81.6203 26.8888L81.5403 27.0088H77.3003L77.2203 26.8888C78.3003 26.4488 78.5003 25.5688 78.5003 23.7288V5.36879C78.5003 3.52879 78.1003 2.56879 77.2203 2.20879ZM85.9881 11.8888C85.1881 10.0888 84.5081 9.16879 83.4281 8.72879L83.5081 8.60879H87.8681L87.9881 8.72879C86.9081 9.16879 87.1881 10.0888 87.9881 11.8888L93.6681 24.6488L98.9481 11.8888C99.7081 10.0488 99.8681 9.16879 98.7881 8.72879L98.8681 8.60879H101.748L101.828 8.72879C100.748 9.16879 100.188 10.0488 99.4281 11.8888L91.7481 30.4488C90.2681 34.0488 89.1481 35.6488 86.9881 35.6488C86.0281 35.6488 84.6281 35.0088 84.6281 33.8488C84.6281 33.2888 85.0681 32.8488 85.6281 32.8488C86.1881 32.8488 86.6281 33.2888 86.6281 33.8488C86.6281 35.0488 87.0681 35.1688 87.3881 35.1688C89.1481 35.1688 90.3481 32.7288 91.4681 29.9688L92.6681 27.0088L85.9881 11.8888Z" fill="#E61F7F"/>
</svg>
