<svg width="203" height="44" viewBox="0 0 203 44" fill="none" xmlns="http://www.w3.org/2000/svg">
<path d="M21.144 1.05353C11.288 1.05353 4.504 9.18153 4.504 21.7895C4.504 34.3975 11.288 42.5255 21.784 42.5255C37.72 42.5255 40.6 25.7575 50.328 25.7575C51.608 25.7575 52.952 26.0775 54.232 26.7815L45.464 6.23753C45.144 5.46953 44.824 4.76553 44.504 4.25353L35.416 27.9335C34.456 30.3655 34.392 31.5815 35.992 32.2215L35.864 32.4135H31.192L31.064 32.2215C32.664 31.5815 33.624 30.3655 34.648 27.7415L44.056 3.35753C43.416 2.46153 42.776 1.88553 41.816 1.50153L41.944 1.30953H46.936L62.424 37.4695C63.576 40.1575 64.6 41.4375 66.264 42.0775L66.136 42.2695H58.712L58.584 42.0775C60.184 41.4375 59.928 40.0935 58.84 37.5335L54.744 27.9335C53.336 26.9735 51.992 26.5255 50.648 26.5255C41.24 26.5255 38.232 43.2935 21.784 43.2935C9.432 43.2935 0.92 34.2055 0.92 21.7895C0.92 9.37353 9.432 0.28553 21.336 0.28553C26.456 0.28553 32.536 2.26953 32.536 5.72553C32.536 6.68553 31.704 7.51753 30.744 7.51753C29.784 7.51753 28.952 6.68553 28.952 5.72553C28.952 3.03753 25.816 1.05353 21.144 1.05353ZM70.465 1.50153L70.593 1.30953H83.521C96.449 1.30953 103.745 6.49353 103.745 14.4935C103.745 22.4935 97.089 27.6775 88.001 27.6775C87.297 27.6775 86.529 27.6135 85.825 27.5495L95.873 38.0455C97.985 40.2855 101.377 43.1015 103.041 43.1015L102.913 43.2935C96.513 43.2935 93.377 40.3495 91.201 38.0455L80.833 27.2295C79.681 26.0135 77.249 24.1575 75.841 21.4055V37.0215C75.841 39.9655 76.161 41.3735 77.889 42.0775L77.761 42.2695H70.593L70.465 42.0775C72.193 41.3735 72.513 39.9655 72.513 37.0215V6.55753C72.513 3.61353 72.193 2.20553 70.465 1.50153ZM75.841 17.7575C76.481 24.0935 82.753 26.9095 88.001 26.9095C94.913 26.9095 100.161 22.0455 100.161 14.4935C100.161 6.94153 94.273 2.07753 83.521 2.07753H75.841V17.7575ZM118.71 42.0775C120.438 41.3735 120.758 39.9655 120.758 37.0215V2.07753H113.078C108.918 2.07753 107.19 3.93353 106.102 6.68553L105.398 6.55753L107.318 1.30953H137.526L139.446 6.55753L138.742 6.68553C137.654 3.93353 135.926 2.07753 131.766 2.07753H124.086V37.0215C124.086 39.9655 124.406 41.3735 126.134 42.0775L126.006 42.2695H118.838L118.71 42.0775ZM142.965 42.0775C144.693 41.3735 145.013 39.9655 145.013 37.0215V6.55753C145.013 3.61353 144.693 2.20553 142.965 1.50153L143.093 1.30953H150.261L150.389 1.50153C148.661 2.20553 148.341 3.61353 148.341 6.55753V41.5015H166.261C170.421 41.5015 172.149 39.6455 173.237 36.8935L173.941 37.0215L172.021 42.2695H143.093L142.965 42.0775ZM171.762 6.10953C170.226 3.74153 168.562 2.14153 166.898 1.50153L167.026 1.30953H174.834L174.962 1.50153C173.362 2.14153 174.194 3.67753 175.73 6.04553L186.61 23.0695L196.978 6.04553C198.45 3.61353 199.282 2.14153 197.682 1.50153L197.81 1.30953H202.546L202.674 1.50153C201.01 2.14153 199.346 3.67753 197.874 6.10953L186.866 24.2215V37.0215C186.866 39.9655 187.186 41.3735 188.914 42.0775L188.786 42.2695H181.618L181.49 42.0775C183.218 41.3735 183.538 39.9655 183.538 37.0215V24.4135L171.762 6.10953Z" fill="white"/>
</svg>
