<?xml version="1.0" encoding="UTF-8"?>
<svg id="Layer_2" data-name="Layer 2" xmlns="http://www.w3.org/2000/svg" viewBox="0 0 27.37 26.04">
  <defs>
    <style>
      .cls-1 {
        fill-rule: evenodd;
      }
    </style>
  </defs>
  <g id="_13" data-name="13">
    <path class="cls-1" d="M27.26.68c-.11-.54-.65-.75-1.18-.65l-5.07,1.94c-.32.1-.53.33-.64.65l-3.65,11.93H4.54c-.43-1.29-2.58-9.03-2.58-9.03-.21-.53-.75-.86-1.18-.65-.54.12-.87.65-.75,1.18l2.8,9.67c.1.44.53.75.97.75h12.27c-.22.87-.54,2.05-.76,2.69H3.68c-.54,0-.97.43-.97.96s.43.87.97.87h12.38c.42,0,.75-.21.96-.64l1.29-4.63h0c.21-.53,3.55-11.28,3.76-12.03.75-.32,4.63-1.83,4.63-1.83.43-.11.65-.43.65-.86,0-.11,0-.22-.11-.33h0ZM4.21,21.74c-1.18,0-2.14.98-2.14,2.16,0,1.06.96,2.14,2.14,2.14s2.16-1.08,2.16-2.14c0-1.18-.98-2.16-2.16-2.16h0ZM15.84,21.74c-1.18,0-2.15.98-2.15,2.16,0,1.06.97,2.14,2.15,2.14s2.15-1.08,2.15-2.14c0-1.18-.97-2.16-2.15-2.16h0Z"/>
  </g>
</svg>